<svg width="300" height="100" viewBox="50 380 500 100" fill="none" xmlns="http://www.w3.org/2000/svg">
<path d="M115.935 428.759C108.58 426.419 101.915 425.26 101.915 420.579C101.915 415.207 107.398 413.691 112.079 413.914C116.76 414.026 122.02 416.366 124.339 420.802L132.876 413.669C129.02 407.004 119.791 403.148 110.095 403.148C97.7022 403.26 87.8946 409.345 87.8946 420.668C87.8946 432.705 98.1703 436.316 107.042 439.235C114.063 441.464 120.349 442.98 120.349 447.639C120.349 452.297 115.913 454.415 109.248 454.192C103.163 453.835 96.9889 450.804 94.7599 445.789L86 453.39C90.2128 460.277 99.6637 464.958 110.876 464.958C123.96 465.07 134.703 459.341 134.703 447.661C134.703 435.402 124.762 431.657 115.891 428.737L115.935 428.759Z" fill="black"/>
<path d="M173.534 451.782C163.37 451.893 155.903 444.783 155.903 434.017C155.903 423.251 163.37 416.252 173.534 416.385C179.374 416.385 184.278 418.726 187.443 422.939L197.028 415.003C191.411 407.648 183.364 403.323 172.732 403.212C154.031 403.101 141.771 415.94 141.771 433.816C141.771 451.693 154.031 465 172.732 465C183.476 465 191.656 460.096 197.385 452.495L187.577 444.894C184.546 449.33 179.397 451.782 173.557 451.782H173.534Z" fill="black"/>
<path d="M254.487 417.321C250.631 409.14 243.632 403.189 232.643 403.189C215.814 403.189 204.38 415.916 204.38 433.793C204.38 451.669 215.837 464.976 232.643 464.976C243.632 464.976 250.631 458.891 254.487 450.488V463.572H269.087V404.348H254.487V417.321ZM236.611 451.781C226.558 451.781 219.091 444.782 219.091 434.016C219.091 423.25 226.558 416.384 236.611 416.384C246.664 416.384 254.376 423.16 254.376 434.016C254.376 444.871 246.664 451.781 236.611 451.781Z" fill="black"/>
<path d="M295.966 377H281.366V463.685H295.966V377Z" fill="black"/>
<path d="M336.518 403.189C317.237 403.189 305.669 415.916 305.669 433.793C305.669 451.669 318.062 464.976 337.922 464.976C348.309 464.976 357.671 461.232 363.511 454.589L352.879 446.877C349.379 450.488 344.007 452.717 337.922 452.605C328.226 452.605 321.45 446.52 320.514 437.649H367.122C368.415 417.677 357.069 403.189 336.518 403.189ZM320.514 430.048C321.561 421.177 327.535 415.448 337.231 415.448C346.927 415.448 353.235 421.065 354.283 429.825L320.514 430.048Z" fill="black"/>
<path d="M435.46 404.35H418.631L395.026 425.726V377H380.426V463.685H395.026V436.358L420.503 463.685H437.8L407.062 430.986L435.46 404.35Z" fill="black"/>
<path d="M447.719 463.683H462.319V404.213H447.719V463.683Z" fill="black"/>
<path d="M496.222 441.372V416.251H508.147V404.326H496.222V388.21L481.622 391.71V404.326H472.617V416.251H481.622V443.467C481.622 462.168 491.429 464.954 509.551 463.55V452.227C499.744 452.918 496.244 450.466 496.244 441.372H496.222Z" fill="black"/>
<path d="M455.034 394.834C459.958 394.834 463.95 390.842 463.95 385.917C463.95 380.992 459.958 377 455.034 377C450.109 377 446.117 380.992 446.117 385.917C446.117 390.842 450.109 394.834 455.034 394.834Z" fill="black"/>
</svg>
