<svg width="707" height="146" viewBox="0 0 707 146" fill="none" xmlns="http://www.w3.org/2000/svg">
<g clip-path="url(#clip0_4041_41)">
<path d="M42.5801 54.8306C51.67 54.8307 60.3295 58.4511 63.9395 64.691L55.9395 71.3707C53.7494 67.2108 48.8194 65.0207 44.4395 64.9107C40.0595 64.6908 34.9102 66.1208 34.9102 71.1607C34.9102 75.5407 41.1497 76.6407 48.0596 78.8306C56.3896 81.5706 65.7002 85.0807 65.7002 96.5806C65.7002 108.081 55.6196 112.901 43.3496 112.791C32.8298 112.791 23.9598 108.411 20.0098 101.941L28.2217 94.8267C30.3038 99.5332 36.112 102.381 41.8096 102.711C48.0495 102.931 52.2196 100.851 52.2197 96.5709C52.2197 92.2909 46.2995 90.7602 39.7295 88.6802C31.3996 85.9403 21.7598 82.5401 21.7598 71.2603C21.76 60.6306 30.9602 54.9406 42.5801 54.8306ZM154.34 54.8306C164.64 54.8306 171.21 60.4205 174.83 68.0904V55.9302H188.53V111.47H174.83V99.2007C171.21 107.091 164.64 112.781 154.34 112.781C138.56 112.781 127.83 100.291 127.83 83.5308C127.83 66.7709 138.57 54.8307 154.34 54.8306ZM251.15 54.8306C270.43 54.8307 281.061 68.411 279.851 87.1509H236.141C237.021 95.4807 243.37 101.17 252.46 101.17C258.16 101.28 263.2 99.2004 266.48 95.8004L276.45 103.031C270.97 109.281 262.21 112.781 252.46 112.781C233.84 112.781 222.221 100.291 222.221 83.5308H222.23C222.23 66.7708 233.08 54.8306 251.15 54.8306ZM99.71 54.8209C109.68 54.9309 117.24 58.9812 122.5 65.8912L113.521 73.3404C110.561 69.4005 105.96 67.2008 100.48 67.2007C90.9505 67.0907 83.9404 73.5508 83.9404 83.7408C83.9405 93.9307 90.9505 100.501 100.48 100.391C105.96 100.391 110.78 98.0902 113.63 93.9302L122.83 101.05C117.46 108.17 109.79 112.771 99.71 112.771C82.1802 112.771 70.6808 100.281 70.6807 83.5211C70.6807 66.7611 82.1801 54.711 99.71 54.8209ZM392.63 55.9302H403.8V67.1011H392.63V90.6509C392.63 99.2007 395.92 101.5 405.12 100.84V111.47C388.14 112.78 378.94 110.16 378.94 92.6304V67.1011H370.5V55.9302H378.94V42.1011L392.63 38.8111V55.9302ZM212.22 111.581H198.53V32.3707H212.22V111.581ZM303.641 75.9703L325.771 55.9205H341.55L314.931 80.9009L343.74 111.581H327.53L303.65 85.941H303.641V111.581H289.95V32.3707H303.641V75.9703ZM363.86 111.581H350.17V55.9205H363.86V111.581ZM158.08 67.2105C148.66 67.2105 141.65 73.5606 141.65 83.7505C141.65 93.9405 148.66 100.401 158.08 100.401C167.5 100.401 174.73 93.8305 174.73 83.7505C174.73 73.5606 167.5 67.2105 158.08 67.2105ZM28.2217 94.8267C28.2209 94.8248 28.2206 94.8227 28.2197 94.8209H28.2295L28.2217 94.8267ZM251.8 66.3306C242.81 66.3308 237.12 71.7012 236.13 80.0211L236.141 80.0308L267.8 79.8111C266.81 71.5911 260.79 66.3306 251.8 66.3306ZM356.96 32.7007C361.378 32.7007 364.96 36.2825 364.96 40.7007C364.96 45.119 361.378 48.7007 356.96 48.7007C352.542 48.7007 348.96 45.119 348.96 40.7007C348.96 36.2825 352.542 32.7007 356.96 32.7007Z" fill="#FDFDFE"/>
</g>
<rect x="425.12" y="20" width="261.128" height="105.161" rx="8" fill="#2E992A"/>
<path d="M640.258 44.0031C648.845 44.0857 655.67 47.1313 660.725 53.3938L654.14 59.9787C651.492 56.2887 646.835 53.9558 641.532 53.4758C636.073 53.2359 631.58 54.9984 631.58 59.093C631.58 64.7929 638.802 66.3985 645.47 68.4084C653.742 70.9809 662.248 73.9513 662.248 85.2688C662.248 95.3034 653.173 101.161 641.293 101.161C631.1 101.161 622.587 97.4707 618.17 89.9182L624.912 83.3332L624.92 83.341C627.492 88.081 632.87 90.8112 639.29 91.2912C645.47 91.6137 650.367 89.768 650.367 84.9455C650.367 79.2459 644.75 78.0388 639.05 76.4338C630.38 73.7863 620.263 70.9734 620.263 58.6135C620.263 49.6285 628.618 43.8456 640.258 44.0031ZM532.107 44.0861C549.77 44.0861 561.253 55.4858 561.253 72.5031C561.253 89.5206 549.77 101.086 532.107 101.086C514.445 101.086 502.888 89.6856 502.888 72.5031C502.888 55.3208 514.445 44.0862 532.107 44.0861ZM596.315 44.0861C604.265 44.0862 610.445 46.5759 615.178 50.8283L607.708 57.6535C604.896 55.4036 600.8 54.0384 596.226 54.0383C584.983 54.0383 578.083 61.6658 578.083 72.5031C578.083 83.3406 584.991 91.1262 596.226 91.1262C600.883 91.1261 604.896 89.6786 607.708 87.3537L615.178 94.1779C610.438 98.5954 604.34 101.086 596.315 101.086C578.57 101.086 567.253 89.6856 567.253 72.5031C567.253 55.3208 578.571 44.0861 596.315 44.0861ZM470.315 44.8879C488.458 44.888 496.888 57.4133 496.888 72.1057C496.888 86.7981 488.458 100.283 470.315 100.283H449.12V44.8879H470.315ZM459.718 91.2082H468.71C480.11 91.2082 486.208 84.0611 486.208 72.0988C486.208 60.1363 480.11 53.8733 468.71 53.8733H459.718V91.2082ZM532.032 54.0461C520.797 54.0463 513.725 61.6736 513.725 72.511C513.725 83.3483 520.872 91.1329 532.032 91.133C543.275 91.133 550.415 83.3484 550.415 72.511C550.415 61.6735 543.267 54.0461 532.032 54.0461Z" fill="black"/>
<path d="M640.258 44.0031C648.845 44.0857 655.67 47.1313 660.725 53.3938L654.14 59.9787C651.492 56.2887 646.835 53.9558 641.532 53.4758C636.073 53.2359 631.58 54.9984 631.58 59.093C631.58 64.7929 638.802 66.3985 645.47 68.4084C653.742 70.9809 662.248 73.9513 662.248 85.2688C662.248 95.3034 653.173 101.161 641.293 101.161C631.1 101.161 622.587 97.4707 618.17 89.9182L624.912 83.3332L624.92 83.341C627.492 88.081 632.87 90.8112 639.29 91.2912C645.47 91.6137 650.367 89.768 650.367 84.9455C650.367 79.2459 644.75 78.0388 639.05 76.4338C630.38 73.7863 620.263 70.9734 620.263 58.6135C620.263 49.6285 628.618 43.8456 640.258 44.0031ZM532.107 44.0861C549.77 44.0861 561.253 55.4858 561.253 72.5031C561.253 89.5206 549.77 101.086 532.107 101.086C514.445 101.086 502.888 89.6856 502.888 72.5031C502.888 55.3208 514.445 44.0862 532.107 44.0861ZM596.315 44.0861C604.265 44.0862 610.445 46.5759 615.178 50.8283L607.708 57.6535C604.896 55.4036 600.8 54.0384 596.226 54.0383C584.983 54.0383 578.083 61.6658 578.083 72.5031C578.083 83.3406 584.991 91.1262 596.226 91.1262C600.883 91.1261 604.896 89.6786 607.708 87.3537L615.178 94.1779C610.438 98.5954 604.34 101.086 596.315 101.086C578.57 101.086 567.253 89.6856 567.253 72.5031C567.253 55.3208 578.571 44.0861 596.315 44.0861ZM470.315 44.8879C488.458 44.888 496.888 57.4133 496.888 72.1057C496.888 86.7981 488.458 100.283 470.315 100.283H449.12V44.8879H470.315ZM459.718 91.2082H468.71C480.11 91.2082 486.208 84.0611 486.208 72.0988C486.208 60.1363 480.11 53.8733 468.71 53.8733H459.718V91.2082ZM532.032 54.0461C520.797 54.0463 513.725 61.6736 513.725 72.511C513.725 83.3483 520.872 91.1329 532.032 91.133C543.275 91.133 550.415 83.3484 550.415 72.511C550.415 61.6735 543.267 54.0461 532.032 54.0461Z" fill="#FDFDFE"/>
<defs>
<clipPath id="clip0_4041_41">
<rect width="385.12" height="80.42" fill="white" transform="translate(20 32.3707)"/>
</clipPath>
</defs>
</svg>
