<svg width="758" height="145" viewBox="0 0 758 145" fill="none" xmlns="http://www.w3.org/2000/svg">
<g clip-path="url(#clip0_4033_105)">
<path d="M42.5801 54.357C51.67 54.3571 60.3295 57.9774 63.9395 64.2174L55.9395 70.8971C53.7494 66.7372 48.8194 64.5471 44.4395 64.4371C40.0595 64.2172 34.9102 65.6472 34.9102 70.6871C34.9102 75.067 41.1497 76.1671 48.0596 78.357C56.3896 81.097 65.7002 84.6071 65.7002 96.107C65.7002 107.607 55.6196 112.427 43.3496 112.317C32.8298 112.317 23.9598 107.937 20.0098 101.467L28.2217 94.3531C30.3038 99.0596 36.112 101.907 41.8096 102.237C48.0495 102.457 52.2196 100.377 52.2197 96.0973C52.2197 91.8173 46.2995 90.2866 39.7295 88.2066C31.3996 85.4667 21.7598 82.0665 21.7598 70.7867C21.76 60.157 30.9602 54.467 42.5801 54.357ZM154.34 54.357C164.64 54.357 171.21 59.9469 174.83 67.6168V55.4566H188.53V110.997H174.83V98.7271C171.21 106.617 164.64 112.307 154.34 112.307C138.56 112.307 127.83 99.8171 127.83 83.0572C127.83 66.2973 138.57 54.3571 154.34 54.357ZM251.15 54.357C270.43 54.3571 281.061 67.9374 279.851 86.6773H236.141C237.021 95.0071 243.37 100.697 252.46 100.697C258.16 100.807 263.2 98.7268 266.48 95.3268L276.45 102.557C270.97 108.807 262.21 112.307 252.46 112.307C233.84 112.307 222.221 99.8171 222.221 83.0572H222.23C222.23 66.2972 233.08 54.357 251.15 54.357ZM99.71 54.3473C109.68 54.4573 117.24 58.5076 122.5 65.4176L113.521 72.8668C110.561 68.9269 105.96 66.7272 100.48 66.7271C90.9505 66.6171 83.9404 73.0772 83.9404 83.2672C83.9405 93.4571 90.9505 100.028 100.48 99.9176C105.96 99.9175 110.78 97.6166 113.63 93.4566L122.83 100.577C117.46 107.697 109.79 112.297 99.71 112.297C82.1802 112.297 70.6808 99.8072 70.6807 83.0475C70.6807 66.2875 82.1801 54.2374 99.71 54.3473ZM392.63 55.4566H403.8V66.6275H392.63V90.1773C392.63 98.7271 395.92 101.027 405.12 100.367V110.997C388.14 112.307 378.94 109.687 378.94 92.1568V66.6275H370.5V55.4566H378.94V41.6275L392.63 38.3375V55.4566ZM212.22 111.107H198.53V31.8971H212.22V111.107ZM303.641 75.4967L325.771 55.4469H341.55L314.931 80.4273L343.74 111.107H327.53L303.65 85.4674H303.641V111.107H289.95V31.8971H303.641V75.4967ZM363.86 111.107H350.17V55.4469H363.86V111.107ZM158.08 66.7369C148.66 66.7369 141.65 73.087 141.65 83.2769C141.65 93.4669 148.66 99.9273 158.08 99.9273C167.5 99.9273 174.73 93.3569 174.73 83.2769C174.73 73.087 167.5 66.7369 158.08 66.7369ZM28.2217 94.3531C28.2209 94.3512 28.2206 94.3491 28.2197 94.3473H28.2295L28.2217 94.3531ZM251.8 65.857C242.81 65.8572 237.12 71.2276 236.13 79.5475L236.141 79.5572L267.8 79.3375C266.81 71.1175 260.79 65.857 251.8 65.857ZM356.96 32.2271C361.378 32.2271 364.96 35.8089 364.96 40.2271C364.96 44.6454 361.378 48.2271 356.96 48.2271C352.542 48.2271 348.96 44.6454 348.96 40.2271C348.96 35.8089 352.542 32.2271 356.96 32.2271Z" fill="#FDFDFE"/>
</g>
<rect x="425.12" y="20" width="312.17" height="104.214" rx="8" fill="#2E992A"/>
<path d="M693.97 34.0042C705.42 34.1142 714.52 38.1739 721.26 46.5237L712.48 55.304C708.95 50.384 702.74 47.2741 695.67 46.6341C688.39 46.3141 682.4 48.6643 682.4 54.1243C682.401 61.7241 692.03 63.8643 700.92 66.5442C711.95 69.9742 723.29 73.934 723.29 89.0237C723.29 102.404 711.19 110.214 695.35 110.214C681.76 110.214 670.41 105.294 664.521 95.2239L673.51 86.4436L673.521 86.4544C676.951 92.774 684.12 96.4139 692.68 97.054C700.92 97.484 707.45 95.024 707.45 88.594C707.45 80.9942 699.96 79.3844 692.36 77.2444C680.8 73.7144 667.31 69.9637 667.31 53.4837C667.31 41.504 678.45 33.7943 693.97 34.0042ZM549.771 34.1136C573.32 34.1137 588.63 49.3143 588.63 72.0042C588.63 94.6939 573.32 110.113 549.771 110.114C526.221 110.114 510.811 94.9141 510.811 72.0042C510.811 49.0942 526.221 34.1136 549.771 34.1136ZM635.38 34.1136C645.98 34.1136 654.22 37.4338 660.53 43.1038L650.57 52.2044C646.82 49.2044 641.36 47.3841 635.26 47.3841C620.27 47.3842 611.07 57.5543 611.07 72.0042C611.07 86.454 620.28 96.8341 635.26 96.8343C641.47 96.8343 646.82 94.904 650.57 91.804L660.53 100.904C654.21 106.794 646.08 110.114 635.38 110.114C611.72 110.113 596.63 94.914 596.63 72.0042C596.63 49.0943 611.72 34.1137 635.38 34.1136ZM467.38 35.1839C491.57 35.1839 502.811 51.884 502.811 71.4739C502.811 91.0639 491.57 109.044 467.38 109.044H439.12V35.1839H467.38ZM453.25 96.9436H465.24C480.44 96.9436 488.57 87.414 488.57 71.4641C488.57 55.5142 480.44 47.1644 465.24 47.1643H453.25V96.9436ZM549.67 47.3938C534.69 47.3939 525.26 57.564 525.26 72.0139C525.26 86.4639 534.79 96.844 549.67 96.844C564.66 96.844 574.18 86.4639 574.18 72.0139C574.18 57.564 564.65 47.3938 549.67 47.3938Z" fill="black"/>
<path d="M693.97 34.0042C705.42 34.1142 714.52 38.1739 721.26 46.5237L712.48 55.304C708.95 50.384 702.74 47.2741 695.67 46.6341C688.39 46.3141 682.4 48.6643 682.4 54.1243C682.401 61.7241 692.03 63.8643 700.92 66.5442C711.95 69.9742 723.29 73.934 723.29 89.0237C723.29 102.404 711.19 110.214 695.35 110.214C681.76 110.214 670.41 105.294 664.521 95.2239L673.51 86.4436L673.521 86.4544C676.951 92.774 684.12 96.4139 692.68 97.054C700.92 97.484 707.45 95.024 707.45 88.594C707.45 80.9942 699.96 79.3844 692.36 77.2444C680.8 73.7144 667.31 69.9637 667.31 53.4837C667.31 41.504 678.45 33.7943 693.97 34.0042ZM549.771 34.1136C573.32 34.1137 588.63 49.3143 588.63 72.0042C588.63 94.6939 573.32 110.113 549.771 110.114C526.221 110.114 510.811 94.9141 510.811 72.0042C510.811 49.0942 526.221 34.1136 549.771 34.1136ZM635.38 34.1136C645.98 34.1136 654.22 37.4338 660.53 43.1038L650.57 52.2044C646.82 49.2044 641.36 47.3841 635.26 47.3841C620.27 47.3842 611.07 57.5543 611.07 72.0042C611.07 86.454 620.28 96.8341 635.26 96.8343C641.47 96.8343 646.82 94.904 650.57 91.804L660.53 100.904C654.21 106.794 646.08 110.114 635.38 110.114C611.72 110.113 596.63 94.914 596.63 72.0042C596.63 49.0943 611.72 34.1137 635.38 34.1136ZM467.38 35.1839C491.57 35.1839 502.811 51.884 502.811 71.4739C502.811 91.0639 491.57 109.044 467.38 109.044H439.12V35.1839H467.38ZM453.25 96.9436H465.24C480.44 96.9436 488.57 87.414 488.57 71.4641C488.57 55.5142 480.44 47.1644 465.24 47.1643H453.25V96.9436ZM549.67 47.3938C534.69 47.3939 525.26 57.564 525.26 72.0139C525.26 86.4639 534.79 96.844 549.67 96.844C564.66 96.844 574.18 86.4639 574.18 72.0139C574.18 57.564 564.65 47.3938 549.67 47.3938Z" fill="#FDFDFE"/>
<defs>
<clipPath id="clip0_4033_105">
<rect width="385.12" height="80.42" fill="white" transform="translate(20 31.8971)"/>
</clipPath>
</defs>
</svg>
