<svg width="615" height="144" viewBox="0 0 615 144" fill="none" xmlns="http://www.w3.org/2000/svg">
<g clip-path="url(#clip0_4041_60)">
<path d="M42.5801 53.9474C51.67 53.9475 60.3295 57.5679 63.9395 63.8078L55.9395 70.4875C53.7494 66.3276 48.8194 64.1375 44.4395 64.0275C40.0595 63.8076 34.9102 65.2376 34.9102 70.2775C34.9102 74.6575 41.1497 75.7575 48.0596 77.9474C56.3896 80.6874 65.7002 84.1975 65.7002 95.6974C65.7002 107.197 55.6196 112.017 43.3496 111.907C32.8298 111.907 23.9598 107.528 20.0098 101.058L28.2217 93.9435C30.3038 98.6501 36.112 101.497 41.8096 101.827C48.0495 102.047 52.2196 99.9676 52.2197 95.6877C52.2197 91.4077 46.2995 89.8771 39.7295 87.7971C31.3996 85.0571 21.7598 81.657 21.7598 70.3771C21.76 59.7474 30.9602 54.0574 42.5801 53.9474ZM154.34 53.9474C164.64 53.9474 171.21 59.5373 174.83 67.2072V55.0471H188.53V110.587H174.83V98.3176C171.21 106.208 164.64 111.898 154.34 111.898C138.56 111.898 127.83 99.4075 127.83 82.6476C127.83 65.8877 138.57 53.9476 154.34 53.9474ZM251.15 53.9474C270.43 53.9475 281.061 67.5278 279.851 86.2678H236.141C237.021 94.5975 243.37 100.287 252.46 100.287C258.16 100.397 263.2 98.3172 266.48 94.9172L276.45 102.148C270.97 108.398 262.21 111.898 252.46 111.898C233.84 111.898 222.221 99.4075 222.221 82.6476H222.23C222.23 65.8876 233.08 53.9474 251.15 53.9474ZM99.71 53.9377C109.68 54.0477 117.24 58.098 122.5 65.008L113.521 72.4572C110.561 68.5173 105.96 66.3176 100.48 66.3176C90.9505 66.2076 83.9404 72.6676 83.9404 82.8576C83.9405 93.0476 90.9505 99.618 100.48 99.508C105.96 99.5079 110.78 97.207 113.63 93.0471L122.83 100.167C117.46 107.287 109.79 111.888 99.71 111.888C82.1802 111.888 70.6808 99.3976 70.6807 82.6379C70.6807 65.8779 82.1801 53.8278 99.71 53.9377ZM392.63 55.0471H403.8V66.218H392.63V89.7678C392.63 98.3175 395.92 100.617 405.12 99.9572V110.587C388.14 111.897 378.94 109.277 378.94 91.7473V66.218H370.5V55.0471H378.94V41.218L392.63 37.9279V55.0471ZM212.22 110.697H198.53V31.4875H212.22V110.697ZM303.641 75.0871L325.771 55.0373H341.55L314.931 80.0178L343.74 110.697H327.53L303.65 85.0578H303.641V110.697H289.95V31.4875H303.641V75.0871ZM363.86 110.697H350.17V55.0373H363.86V110.697ZM158.08 66.3273C148.66 66.3273 141.65 72.6775 141.65 82.8674C141.65 93.0574 148.66 99.5178 158.08 99.5178C167.5 99.5178 174.73 92.9474 174.73 82.8674C174.73 72.6775 167.5 66.3273 158.08 66.3273ZM28.2217 93.9435C28.2209 93.9417 28.2206 93.9396 28.2197 93.9377H28.2295L28.2217 93.9435ZM251.8 65.4474C242.81 65.4476 237.12 70.818 236.13 79.1379L236.141 79.1476L267.8 78.9279C266.81 70.7079 260.79 65.4474 251.8 65.4474ZM356.96 31.8176C361.378 31.8176 364.96 35.3993 364.96 39.8176C364.96 44.2358 361.378 47.8176 356.96 47.8176C352.542 47.8176 348.96 44.2358 348.96 39.8176C348.96 35.3993 352.542 31.8176 356.96 31.8176Z" fill="#040405"/>
</g>
<rect x="425.12" y="20" width="169.53" height="103.395" rx="8" fill="#2E992A"/>
<g clip-path="url(#clip1_4041_60)">
<path d="M502.265 99.3945H491.105L486.29 86.2324L465.178 86.1504L460.362 99.3945H449.12L470.397 44H481.235L502.265 99.3945ZM570.65 99.3945H560.053V44.082H570.65V99.3945ZM529.221 44C542.705 44.0001 551.061 49.9404 551.061 62.9453C551.06 75.95 542.713 81.327 529.221 81.3271H518.863V99.3877H508.266V44H529.221ZM468.23 77.96H483.245L475.857 57.5674L468.23 77.96ZM518.863 72.8975H527.69C536.203 72.8974 540.373 70.167 540.373 63.0195C540.373 55.8724 536.195 52.8272 527.69 52.8271H518.863V72.8975Z" fill="#FDFDFE"/>
</g>
<defs>
<clipPath id="clip0_4041_60">
<rect width="385.12" height="80.42" fill="white" transform="translate(20 31.4875)"/>
</clipPath>
<clipPath id="clip1_4041_60">
<rect width="121.53" height="55.395" fill="white" transform="translate(449.12 44)"/>
</clipPath>
</defs>
</svg>
