<svg width="235" height="52" viewBox="0 0 235 52" fill="none" xmlns="http://www.w3.org/2000/svg">
<path d="M16.4816 27.8202C14.3975 27.1538 12.5092 26.8238 12.5092 25.491C12.5092 23.9615 14.0628 23.5299 15.389 23.5934C16.7153 23.6251 18.2057 24.2915 18.8625 25.5545L21.2813 23.5236C20.1887 21.626 17.5742 20.528 14.827 20.528C11.3156 20.5597 8.53681 22.2924 8.53681 25.5164C8.53681 28.9435 11.4482 29.9717 13.9617 30.8031C15.9511 31.4377 17.732 31.8693 17.732 33.1957C17.732 34.5221 16.4753 35.125 14.587 35.0616C12.8629 34.96 11.1135 34.0969 10.482 32.6689L8 34.8331C9.19361 36.7942 11.8713 38.127 15.048 38.127C18.7551 38.1587 21.7992 36.5276 21.7992 33.202C21.7992 29.7114 18.9825 28.6452 16.469 27.8138L16.4816 27.8202Z" fill="white"/>
<path d="M32.8054 34.3753C29.9255 34.4071 27.8099 32.3825 27.8099 29.3171C27.8099 26.2518 29.9255 24.2589 32.8054 24.297C34.46 24.297 35.8494 24.9634 36.7462 26.1629L39.4618 23.9035C37.8703 21.8092 35.5905 20.578 32.578 20.5462C27.2794 20.5145 23.8059 24.1701 23.8059 29.26C23.8059 34.3499 27.2794 38.1388 32.578 38.1388C35.622 38.1388 37.9398 36.7426 39.5628 34.5784L36.7841 32.4142C35.9252 33.6772 34.4663 34.3753 32.8117 34.3753H32.8054Z" fill="white"/>
<path d="M55.7319 24.5577C54.6394 22.2285 52.6563 20.534 49.5428 20.534C44.7747 20.534 41.5349 24.1579 41.5349 29.2478C41.5349 34.3377 44.781 38.1266 49.5428 38.1266C52.6563 38.1266 54.6394 36.394 55.7319 34.0013V37.7267H59.8685V20.864H55.7319V24.5577ZM50.667 34.3694C47.8187 34.3694 45.7031 32.3766 45.7031 29.3112C45.7031 26.2459 47.8187 24.2911 50.667 24.2911C53.5152 24.2911 55.7004 26.2205 55.7004 29.3112C55.7004 32.402 53.5152 34.3694 50.667 34.3694Z" fill="white"/>
<path d="M67.4872 13.0788H63.3506V37.7604H67.4872V13.0788Z" fill="white"/>
<path d="M78.9784 20.534C73.5156 20.534 70.2379 24.1579 70.2379 29.2478C70.2379 34.3377 73.7493 38.1266 79.3763 38.1266C82.3193 38.1266 84.9718 37.0604 86.6264 35.1691L83.6139 32.9732C82.6224 34.0013 81.1004 34.636 79.3763 34.6042C76.6291 34.6042 74.7092 32.8716 74.444 30.3457H87.6495C88.0158 24.6592 84.8012 20.534 78.9784 20.534ZM74.444 28.1816C74.7408 25.6556 76.4333 24.0246 79.1805 24.0246C81.9277 24.0246 83.715 25.6239 84.0118 28.1181L74.444 28.1816Z" fill="white"/>
<path d="M107.009 20.866H102.241L95.5532 26.9523V13.0788H91.4166V37.7604H95.5532V29.9796L102.772 37.7604H107.672L98.9635 28.4501L107.009 20.866Z" fill="white"/>
<path d="M110.48 37.758H114.616V20.8255H110.48V37.758Z" fill="white"/>
<path d="M124.223 31.4095V24.2569H127.602V20.8615H124.223V16.273L120.087 17.2694V20.8615H117.535V24.2569H120.087V32.0061C120.087 37.3308 122.866 38.1241 128 37.7243V34.5003C125.221 34.697 124.23 33.9989 124.23 31.4095H124.223Z" fill="white"/>
<path d="M112.562 18.1565C113.957 18.1565 115.088 17.0198 115.088 15.6177C115.088 14.2155 113.957 13.0788 112.562 13.0788C111.166 13.0788 110.035 14.2155 110.035 15.6177C110.035 17.0198 111.166 18.1565 112.562 18.1565Z" fill="white"/>
<path d="M140 15.0638C140 11.7339 140 10.0689 141.034 9.03447C142.069 8 143.734 8 147.064 8H213.681C217.011 8 218.676 8 219.71 9.03447C220.745 10.0689 220.745 11.7339 220.745 15.0638V36.1538C220.745 39.4837 220.745 41.1487 219.71 42.1832C218.676 43.2176 217.011 43.2176 213.681 43.2176H147.064C143.734 43.2176 142.069 43.2176 141.034 42.1832C140 41.1487 140 39.4837 140 36.1538V15.0638Z" fill="#1F2937" fill-opacity="0.77"/>
<path d="M162.179 32.6088H157.47V18.0634H162.328C163.754 18.0634 164.977 18.3546 166 18.937C167.023 19.5146 167.807 20.3456 168.351 21.4298C168.9 22.5094 169.175 23.8044 169.175 25.3148C169.175 26.8299 168.898 28.132 168.344 29.221C167.795 30.3101 166.999 31.1481 165.958 31.7352C164.916 32.3176 163.656 32.6088 162.179 32.6088ZM159.665 30.6912H162.058C163.166 30.6912 164.087 30.4829 164.821 30.0662C165.555 29.6448 166.104 29.0364 166.469 28.2409C166.834 27.4407 167.016 26.4654 167.016 25.3148C167.016 24.1737 166.834 23.2054 166.469 22.41C166.109 21.6145 165.572 21.0108 164.857 20.5989C164.142 20.187 163.254 19.981 162.193 19.981H159.665V30.6912ZM176.387 32.829C175.365 32.829 174.472 32.5946 173.71 32.1259C172.948 31.6571 172.356 31.0013 171.934 30.1585C171.513 29.3157 171.302 28.3309 171.302 27.204C171.302 26.0724 171.513 25.0828 171.934 24.2352C172.356 23.3877 172.948 22.7296 173.71 22.2608C174.472 21.7921 175.365 21.5577 176.387 21.5577C177.41 21.5577 178.303 21.7921 179.065 22.2608C179.827 22.7296 180.419 23.3877 180.841 24.2352C181.262 25.0828 181.473 26.0724 181.473 27.204C181.473 28.3309 181.262 29.3157 180.841 30.1585C180.419 31.0013 179.827 31.6571 179.065 32.1259C178.303 32.5946 177.41 32.829 176.387 32.829ZM176.394 31.0463C177.057 31.0463 177.607 30.8711 178.042 30.5208C178.478 30.1704 178.8 29.704 179.008 29.1216C179.221 28.5392 179.328 27.8977 179.328 27.1969C179.328 26.5009 179.221 25.8617 179.008 25.2793C178.8 24.6922 178.478 24.221 178.042 23.8659C177.607 23.5108 177.057 23.3333 176.394 23.3333C175.727 23.3333 175.173 23.5108 174.733 23.8659C174.297 24.221 173.973 24.6922 173.76 25.2793C173.551 25.8617 173.447 26.5009 173.447 27.1969C173.447 27.8977 173.551 28.5392 173.76 29.1216C173.973 29.704 174.297 30.1704 174.733 30.5208C175.173 30.8711 175.727 31.0463 176.394 31.0463ZM188.497 32.829C187.441 32.829 186.532 32.5899 185.77 32.1117C185.012 31.6287 184.43 30.9635 184.022 30.1159C183.615 29.2684 183.412 28.2977 183.412 27.204C183.412 26.096 183.62 25.1183 184.037 24.2708C184.453 23.4185 185.04 22.7532 185.798 22.275C186.556 21.7968 187.448 21.5577 188.476 21.5577C189.304 21.5577 190.043 21.7116 190.691 22.0193C191.34 22.3224 191.863 22.7485 192.261 23.2977C192.664 23.847 192.903 24.4886 192.978 25.2225H190.912C190.798 24.7111 190.538 24.2708 190.13 23.9014C189.728 23.5321 189.188 23.3475 188.511 23.3475C187.919 23.3475 187.401 23.5037 186.956 23.8162C186.515 24.124 186.172 24.5643 185.926 25.1372C185.68 25.7054 185.557 26.3778 185.557 27.1543C185.557 27.9497 185.677 28.6363 185.919 29.2139C186.16 29.7916 186.501 30.239 186.941 30.5563C187.387 30.8735 187.91 31.0321 188.511 31.0321C188.914 31.0321 189.278 30.9587 189.605 30.812C189.936 30.6604 190.213 30.445 190.436 30.1656C190.663 29.8863 190.822 29.5501 190.912 29.1571H192.978C192.903 29.8626 192.673 30.4923 192.29 31.0463C191.906 31.6003 191.392 32.0359 190.748 32.3531C190.109 32.6704 189.359 32.829 188.497 32.829ZM203.483 24.3631L201.558 24.704C201.478 24.4578 201.35 24.2234 201.175 24.0009C201.004 23.7783 200.772 23.596 200.479 23.454C200.185 23.312 199.818 23.2409 199.378 23.2409C198.776 23.2409 198.274 23.3759 197.872 23.6458C197.47 23.9109 197.268 24.2542 197.268 24.6756C197.268 25.0402 197.403 25.3337 197.673 25.5563C197.943 25.7788 198.379 25.9611 198.98 26.1031L200.713 26.5009C201.717 26.7329 202.465 27.0904 202.957 27.5733C203.45 28.0563 203.696 28.6836 203.696 29.4554C203.696 30.1088 203.506 30.6912 203.128 31.2026C202.754 31.7092 202.23 32.1069 201.558 32.3958C200.89 32.6846 200.116 32.829 199.236 32.829C198.014 32.829 197.017 32.5686 196.246 32.0477C195.474 31.5222 195 30.7764 194.825 29.8105L196.878 29.498C197.006 30.0331 197.268 30.4379 197.666 30.7125C198.064 30.9824 198.582 31.1173 199.221 31.1173C199.917 31.1173 200.474 30.9729 200.89 30.6841C201.307 30.3905 201.515 30.0331 201.515 29.6117C201.515 29.2708 201.388 28.9843 201.132 28.7523C200.881 28.5203 200.495 28.3451 199.974 28.2267L198.128 27.8219C197.11 27.5899 196.357 27.2206 195.869 26.7139C195.386 26.2073 195.145 25.5657 195.145 24.7892C195.145 24.1453 195.325 23.5818 195.685 23.0989C196.044 22.6159 196.542 22.2395 197.176 21.9696C197.81 21.695 198.537 21.5577 199.356 21.5577C200.535 21.5577 201.463 21.8134 202.14 22.3247C202.818 22.8314 203.265 23.5108 203.483 24.3631Z" fill="#F2F2F3"/>
</svg>
