<svg width="477" height="59" viewBox="0 0 477 59" fill="none" xmlns="http://www.w3.org/2000/svg">
<g clip-path="url(#clip0_2752_55086)">
<rect width="477" height="59" fill="white"/>
<path d="M18.9732 34.0306C14.3111 32.5472 10.087 31.8125 10.087 28.8458C10.087 25.4411 13.5624 24.4804 16.5291 24.6217C19.4959 24.6923 22.83 26.1757 24.2992 28.9871L29.71 24.4663C27.266 20.2421 21.4172 17.7981 15.2718 17.7981C7.41691 17.8687 1.20083 21.7255 1.20083 28.9023C1.20083 36.5311 7.71359 38.8197 13.3363 40.6704C17.7865 42.0832 21.7704 43.0438 21.7704 45.9965C21.7704 48.9491 18.959 50.2912 14.7349 50.1499C10.8781 49.9239 6.96483 48.0026 5.55209 44.8239L0 49.6414C2.67009 54.0068 8.66013 56.9735 15.7662 56.9735C24.059 57.0442 30.8685 53.4134 30.8685 46.0106C30.8685 38.2405 24.5676 35.8671 18.9449 34.0164L18.9732 34.0306Z" fill="black"/>
<path d="M55.4798 48.6223C49.0376 48.693 44.3049 44.1863 44.3049 37.3627C44.3049 30.5392 49.0376 26.1032 55.4798 26.1879C59.1811 26.1879 62.2892 27.6713 64.2953 30.3414L70.3701 25.312C66.81 20.65 61.71 17.9092 54.9712 17.8386C43.1182 17.768 35.3481 25.9054 35.3481 37.2356C35.3481 48.5658 43.1182 56.9999 54.9712 56.9999C61.7806 56.9999 66.9654 53.8919 70.5961 49.0744L64.3801 44.2569C62.4587 47.0683 59.1953 48.6223 55.4939 48.6223H55.4798Z" fill="black"/>
<path d="M106.788 26.7805C104.344 21.5958 99.9082 17.8237 92.9434 17.8237C82.2772 17.8237 75.0298 25.8905 75.0298 37.2207C75.0298 48.5509 82.2913 56.985 92.9434 56.985C99.9082 56.985 104.344 53.1282 106.788 47.8022V56.095H116.042V18.5583H106.788V26.7805ZM95.4581 48.6216C89.0866 48.6216 84.3539 44.1855 84.3539 37.362C84.3539 30.5384 89.0866 26.1872 95.4581 26.1872C101.83 26.1872 106.718 30.4819 106.718 37.362C106.718 44.242 101.83 48.6216 95.4581 48.6216Z" fill="black"/>
<path d="M133.078 1.22534H123.824V56.167H133.078V1.22534Z" fill="black"/>
<path d="M158.779 17.8237C146.559 17.8237 139.227 25.8905 139.227 37.2207C139.227 48.5509 147.082 56.985 159.669 56.985C166.253 56.985 172.186 54.6116 175.888 50.4016L169.149 45.5135C166.931 47.8021 163.526 49.2149 159.669 49.1443C153.524 49.1443 149.229 45.2875 148.636 39.6648H178.176C178.996 27.0066 171.805 17.8237 158.779 17.8237ZM148.636 34.8473C149.3 29.2246 153.086 25.5938 159.232 25.5938C165.377 25.5938 169.375 29.1539 170.039 34.706L148.636 34.8473Z" fill="black"/>
<path d="M221.489 18.5597H210.823L195.862 32.1079V1.22534H186.608V56.167H195.862V38.8467L212.01 56.167H222.972L203.491 35.442L221.489 18.5597Z" fill="black"/>
<path d="M229.259 56.1652H238.512V18.4731H229.259V56.1652Z" fill="black"/>
<path d="M260.001 42.0243V26.1026H267.559V18.5444H260.001V8.33032L250.747 10.5483V18.5444H245.04V26.1026H250.747V43.3522C250.747 55.2052 256.963 56.9711 268.449 56.0811V48.9044C262.233 49.3423 260.015 47.7883 260.015 42.0243H260.001Z" fill="black"/>
<path d="M233.895 12.5284C237.016 12.5284 239.547 9.99816 239.547 6.87689C239.547 3.75563 237.016 1.22534 233.895 1.22534C230.774 1.22534 228.244 3.75563 228.244 6.87689C228.244 9.99816 230.774 12.5284 233.895 12.5284Z" fill="black"/>
<path d="M333.371 31.248C333.371 40.9173 331.151 47.6267 326.711 51.376C322.271 55.1253 316.795 57 310.283 57H298.591V6.014H309.469C316.622 6.014 322.394 7.81466 326.785 11.416C331.175 15.0173 333.371 21.628 333.371 31.248ZM326.489 31.248C326.489 25.7227 325.724 21.5047 324.195 18.594C322.715 15.634 320.865 13.6853 318.645 12.748C316.425 11.7613 313.884 11.268 311.023 11.268H305.029V51.82H311.097C315.487 51.82 319.138 50.3153 322.049 47.306C325.009 44.2473 326.489 38.8947 326.489 31.248ZM377.742 31.544C377.742 39.4867 376.114 45.8507 372.858 50.636C369.651 55.4213 365.038 57.814 359.02 57.814C352.952 57.814 348.314 55.4707 345.108 50.784C341.901 46.0973 340.298 39.7087 340.298 31.618C340.298 26.438 341.013 21.85 342.444 17.854C343.874 13.858 345.996 10.75 348.808 8.53C351.62 6.31 355.024 5.2 359.02 5.2C365.038 5.2 369.651 7.59266 372.858 12.378C376.114 17.114 377.742 23.5027 377.742 31.544ZM371.082 31.544C371.082 24.588 370.12 19.3587 368.196 15.856C366.272 12.3533 363.213 10.602 359.02 10.602C354.826 10.602 351.768 12.378 349.844 15.93C347.92 19.4327 346.958 24.662 346.958 31.618C346.958 38.5247 347.92 43.7293 349.844 47.232C351.817 50.6853 354.876 52.412 359.02 52.412C363.213 52.412 366.272 50.6853 368.196 47.232C370.12 43.7293 371.082 38.5 371.082 31.544ZM407.683 5.2C410.84 5.2 413.554 5.61933 415.823 6.458C418.092 7.24733 420.312 8.48066 422.483 10.158L418.857 14.376C415.848 11.86 412.271 10.602 408.127 10.602C403.539 10.602 399.79 12.2793 396.879 15.634C394.018 18.9393 392.587 24.218 392.587 31.47C392.587 38.6727 393.993 43.9513 396.805 47.306C399.617 50.6607 403.366 52.338 408.053 52.338C410.618 52.338 412.814 51.968 414.639 51.228C416.464 50.488 418.216 49.452 419.893 48.12L423.223 52.264C419.424 55.964 414.343 57.814 407.979 57.814C403.786 57.814 400.012 56.8027 396.657 54.78C393.302 52.708 390.663 49.6987 388.739 45.752C386.815 41.8053 385.853 37.0447 385.853 31.47C385.853 25.9447 386.815 21.2087 388.739 17.262C390.712 13.266 393.352 10.2567 396.657 8.234C400.012 6.21133 403.687 5.2 407.683 5.2ZM465.3 42.866C465.3 45.826 464.56 48.4407 463.08 50.71C461.6 52.93 459.454 54.6813 456.642 55.964C453.83 57.1973 450.5 57.814 446.652 57.814C442.952 57.814 439.573 57.2713 436.514 56.186C433.505 55.0513 430.915 53.448 428.744 51.376L432.592 47.01C434.467 48.786 436.539 50.1427 438.808 51.08C441.127 52.0173 443.766 52.486 446.726 52.486C450.081 52.486 452.893 51.672 455.162 50.044C457.431 48.416 458.566 46.0727 458.566 43.014C458.566 41.2873 458.245 39.8567 457.604 38.722C456.963 37.5873 455.828 36.576 454.2 35.688C452.621 34.8 450.377 33.9367 447.466 33.098C441.941 31.47 437.821 29.5707 435.108 27.4C432.395 25.18 431.038 22.1707 431.038 18.372C431.038 15.856 431.729 13.5867 433.11 11.564C434.491 9.54133 436.44 7.98733 438.956 6.902C441.472 5.76733 444.333 5.2 447.54 5.2C450.895 5.2 453.879 5.69333 456.494 6.68C459.158 7.66667 461.6 9.122 463.82 11.046L459.972 15.19C456.469 12.1313 452.399 10.602 447.762 10.602C444.802 10.602 442.36 11.2433 440.436 12.526C438.512 13.8087 437.55 15.6833 437.55 18.15C437.55 19.63 437.945 20.888 438.734 21.924C439.523 22.96 440.831 23.922 442.656 24.81C444.481 25.698 447.047 26.6107 450.352 27.548C455.137 28.9293 458.813 30.73 461.378 32.95C463.993 35.17 465.3 38.4753 465.3 42.866Z" fill="#646464"/>
</g>
<defs>
<clipPath id="clip0_2752_55086">
<rect width="477" height="59" fill="white"/>
</clipPath>
</defs>
</svg>