<svg width="477" height="57" viewBox="0 0 477 57" fill="none" xmlns="http://www.w3.org/2000/svg">
<g clip-path="url(#clip0_2748_55083)">
<rect width="477" height="57" fill="white"/>
<path d="M18.9732 33.8052C14.3111 32.3218 10.087 31.5872 10.087 28.6204C10.087 25.2157 13.5624 24.2551 16.5291 24.3963C19.4959 24.467 22.83 25.9504 24.2992 28.7617L29.71 24.2409C27.266 20.0168 21.4172 17.5728 15.2718 17.5728C7.41691 17.6434 1.20083 21.5002 1.20083 28.677C1.20083 36.3058 7.71359 38.5944 13.3363 40.4451C17.7865 41.8578 21.7704 42.8185 21.7704 45.7711C21.7704 48.7238 18.959 50.0659 14.7349 49.9246C10.8781 49.6986 6.96483 47.7772 5.55209 44.5986L0 49.416C2.67009 53.7814 8.66013 56.7482 15.7662 56.7482C24.059 56.8188 30.8685 53.1881 30.8685 45.7853C30.8685 38.0152 24.5676 35.6418 18.9449 33.7911L18.9732 33.8052Z" fill="black"/>
<path d="M55.4798 48.397C49.0376 48.4676 44.3049 43.961 44.3049 37.1374C44.3049 30.3138 49.0376 25.8778 55.4798 25.9626C59.1811 25.9626 62.2892 27.446 64.2953 30.1161L70.3701 25.0867C66.81 20.4246 61.71 17.6839 54.9712 17.6132C43.1182 17.5426 35.3481 25.68 35.3481 37.0103C35.3481 48.3405 43.1182 56.7745 54.9712 56.7745C61.7806 56.7745 66.9654 53.6665 70.5961 48.8491L64.3801 44.0316C62.4587 46.843 59.1953 48.397 55.4939 48.397H55.4798Z" fill="black"/>
<path d="M106.788 26.5554C104.344 21.3707 99.9082 17.5986 92.9434 17.5986C82.2772 17.5986 75.0298 25.6654 75.0298 36.9956C75.0298 48.3258 82.2913 56.7599 92.9434 56.7599C99.9082 56.7599 104.344 52.9031 106.788 47.5771V55.8699H116.042V18.3332H106.788V26.5554ZM95.4581 48.3965C89.0866 48.3965 84.3539 43.9604 84.3539 37.1369C84.3539 30.3133 89.0866 25.9621 95.4581 25.9621C101.83 25.9621 106.718 30.2568 106.718 37.1369C106.718 44.0169 101.83 48.3965 95.4581 48.3965Z" fill="black"/>
<path d="M133.078 1H123.824V55.9416H133.078V1Z" fill="black"/>
<path d="M158.779 17.5986C146.559 17.5986 139.227 25.6654 139.227 36.9956C139.227 48.3258 147.082 56.7599 159.669 56.7599C166.253 56.7599 172.186 54.3865 175.888 50.1765L169.149 45.2884C166.931 47.577 163.526 48.9898 159.669 48.9192C153.524 48.9192 149.229 45.0624 148.636 39.4397H178.176C178.996 26.7815 171.805 17.5986 158.779 17.5986ZM148.636 34.6222C149.3 28.9995 153.086 25.3687 159.232 25.3687C165.377 25.3687 169.375 28.9288 170.039 34.4809L148.636 34.6222Z" fill="black"/>
<path d="M221.489 18.3344H210.823L195.862 31.8826V1H186.608V55.9416H195.862V38.6214L212.01 55.9416H222.972L203.491 35.2167L221.489 18.3344Z" fill="black"/>
<path d="M229.259 55.9398H238.512V18.2478H229.259V55.9398Z" fill="black"/>
<path d="M260.001 41.7989V25.8773H267.559V18.3191H260.001V8.10498L250.747 10.323V18.3191H245.04V25.8773H250.747V43.1269C250.747 54.9798 256.963 56.7458 268.449 55.8557V48.679C262.233 49.117 260.015 47.5629 260.015 41.7989H260.001Z" fill="black"/>
<path d="M233.895 12.3031C237.016 12.3031 239.547 9.77282 239.547 6.65155C239.547 3.53029 237.016 1 233.895 1C230.774 1 228.244 3.53029 228.244 6.65155C228.244 9.77282 230.774 12.3031 233.895 12.3031Z" fill="black"/>
<path d="M336.689 28.0472C336.689 38.5005 334.289 45.7539 329.489 49.8072C324.689 53.8605 318.769 55.8872 311.729 55.8872H299.089V0.767206H310.849C318.582 0.767206 324.822 2.71387 329.569 6.6072C334.315 10.5005 336.689 17.6472 336.689 28.0472ZM329.249 28.0472C329.249 22.0739 328.422 17.5139 326.769 14.3672C325.169 11.1672 323.169 9.06054 320.769 8.0472C318.369 6.98054 315.622 6.4472 312.529 6.4472H306.049V50.2872H312.609C317.355 50.2872 321.302 48.6605 324.449 45.4072C327.649 42.1005 329.249 36.3139 329.249 28.0472ZM364.497 12.8472C370.311 12.8472 374.764 14.8205 377.857 18.7672C381.004 22.6605 382.577 27.9939 382.577 34.7672C382.577 41.3805 380.977 46.7139 377.777 50.7672C374.631 54.7672 370.177 56.7672 364.417 56.7672C358.604 56.7672 354.124 54.8205 350.977 50.9272C347.831 46.9805 346.257 41.6205 346.257 34.8472C346.257 28.1805 347.831 22.8472 350.977 18.8472C354.177 14.8472 358.684 12.8472 364.497 12.8472ZM364.497 18.3672C360.817 18.3672 358.071 19.7272 356.257 22.4472C354.444 25.1672 353.537 29.3005 353.537 34.8472C353.537 40.3939 354.417 44.5272 356.177 47.2472C357.991 49.9139 360.737 51.2472 364.417 51.2472C368.097 51.2472 370.817 49.9139 372.577 47.2472C374.391 44.5272 375.297 40.3672 375.297 34.7672C375.297 29.2205 374.391 25.1139 372.577 22.4472C370.817 19.7272 368.124 18.3672 364.497 18.3672ZM415.506 51.0072C419.186 51.0072 422.84 49.7805 426.466 47.3272L429.666 51.7272C427.906 53.2739 425.72 54.5005 423.106 55.4072C420.493 56.3139 417.96 56.7672 415.506 56.7672C409.266 56.7672 404.386 54.8205 400.866 50.9272C397.4 46.9805 395.666 41.6739 395.666 35.0072C395.666 30.7939 396.44 27.0072 397.986 23.6472C399.586 20.2872 401.88 17.6472 404.866 15.7272C407.853 13.8072 411.4 12.8472 415.506 12.8472C420.946 12.8472 425.64 14.5005 429.586 17.8072L426.306 22.2072C422.626 19.7539 419 18.5272 415.426 18.5272C411.64 18.5272 408.6 19.9405 406.306 22.7672C404.066 25.5405 402.946 29.6205 402.946 35.0072C402.946 40.3939 404.066 44.4205 406.306 47.0872C408.6 49.7005 411.666 51.0072 415.506 51.0072ZM458.755 51.2472C461.955 51.2472 464.488 50.6339 466.355 49.4072C468.222 48.1805 469.155 46.5539 469.155 44.5272C469.155 43.1405 468.915 42.0205 468.435 41.1672C467.955 40.2605 466.995 39.4605 465.555 38.7672C464.115 38.0205 461.928 37.2739 458.995 36.5272C454.088 35.3005 450.462 33.8339 448.115 32.1272C445.768 30.3672 444.595 27.7805 444.595 24.3672C444.595 20.8472 446.062 18.0472 448.995 15.9672C451.928 13.8872 455.795 12.8472 460.595 12.8472C466.462 12.8472 471.582 14.3939 475.955 17.4872L472.915 22.1272C471.155 20.9005 469.315 19.9672 467.395 19.3272C465.475 18.6339 463.262 18.2872 460.755 18.2872C454.675 18.2872 451.635 20.1272 451.635 23.8072C451.635 25.0872 451.955 26.1272 452.595 26.9272C453.288 27.7272 454.382 28.4472 455.875 29.0872C457.422 29.6739 459.715 30.3939 462.755 31.2472C467.342 32.4739 470.755 34.0472 472.995 35.9672C475.288 37.8339 476.435 40.5805 476.435 44.2072C476.435 48.4205 474.728 51.5672 471.315 53.6472C467.902 55.7272 463.715 56.7672 458.755 56.7672C452.142 56.7672 446.648 54.8739 442.275 51.0872L446.035 46.6872C447.742 48.0739 449.688 49.1939 451.875 50.0472C454.062 50.8472 456.355 51.2472 458.755 51.2472Z" fill="#646464"/>
</g>
<defs>
<clipPath id="clip0_2748_55083">
<rect width="477" height="57" fill="white"/>
</clipPath>
</defs>
</svg>
