<svg width="235" height="46" viewBox="0 0 235 46" fill="none" xmlns="http://www.w3.org/2000/svg">
<path d="M16.4816 25.2114C14.3975 24.545 12.5092 24.215 12.5092 22.8822C12.5092 21.3527 14.0628 20.9211 15.389 20.9846C16.7153 21.0163 18.2057 21.6827 18.8625 22.9457L21.2813 20.9148C20.1887 19.0171 17.5742 17.9192 14.827 17.9192C11.3156 17.9509 8.53681 19.6835 8.53681 22.9076C8.53681 26.3347 11.4482 27.3628 13.9617 28.1942C15.9511 28.8289 17.732 29.2604 17.732 30.5869C17.732 31.9133 16.4753 32.5162 14.587 32.4527C12.8629 32.3512 11.1135 31.4881 10.482 30.0601L8 32.2243C9.19361 34.1854 11.8713 35.5181 15.048 35.5181C18.7551 35.5499 21.7992 33.9188 21.7992 30.5932C21.7992 27.1026 18.9825 26.0364 16.469 25.205L16.4816 25.2114Z" fill="white"/>
<path d="M32.8053 31.7665C29.9255 31.7983 27.8098 29.7737 27.8098 26.7083C27.8098 23.643 29.9255 21.6502 32.8053 21.6882C34.46 21.6882 35.8494 22.3546 36.7461 23.5541L39.4618 21.2948C37.8703 19.2004 35.5904 17.9692 32.578 17.9374C27.2794 17.9057 23.8059 21.5613 23.8059 26.6512C23.8059 31.7411 27.2794 35.53 32.578 35.53C35.622 35.53 37.9398 34.1338 39.5628 31.9696L36.784 29.8055C35.9251 31.0684 34.4663 31.7665 32.8116 31.7665H32.8053Z" fill="white"/>
<path d="M55.7319 21.9489C54.6394 19.6197 52.6563 17.9252 49.5428 17.9252C44.7747 17.9252 41.5349 21.5491 41.5349 26.639C41.5349 31.7289 44.781 35.5178 49.5428 35.5178C52.6563 35.5178 54.6394 33.7852 55.7319 31.3925V35.118H59.8685V18.2552H55.7319V21.9489ZM50.667 31.7606C47.8187 31.7606 45.7031 29.7678 45.7031 26.7024C45.7031 23.6371 47.8187 21.6823 50.667 21.6823C53.5152 21.6823 55.7004 23.6117 55.7004 26.7024C55.7004 29.7932 53.5152 31.7606 50.667 31.7606Z" fill="white"/>
<path d="M67.4872 10.47H63.3506V35.1516H67.4872V10.47Z" fill="white"/>
<path d="M78.9784 17.9252C73.5156 17.9252 70.2379 21.5491 70.2379 26.639C70.2379 31.7289 73.7493 35.5178 79.3763 35.5178C82.3193 35.5178 84.9718 34.4516 86.6264 32.5603L83.6139 30.3644C82.6224 31.3925 81.1004 32.0272 79.3763 31.9955C76.6291 31.9955 74.7092 30.2629 74.444 27.7369H87.6495C88.0158 22.0504 84.8012 17.9252 78.9784 17.9252ZM74.444 25.5728C74.7408 23.0468 76.4333 21.4158 79.1805 21.4158C81.9277 21.4158 83.715 23.0151 84.0118 25.5093L74.444 25.5728Z" fill="white"/>
<path d="M107.009 18.2572H102.241L95.5532 24.3435V10.47H91.4166V35.1516H95.5532V27.3708L102.772 35.1516H107.672L98.9635 25.8413L107.009 18.2572Z" fill="white"/>
<path d="M110.48 35.1492H114.616V18.2167H110.48V35.1492Z" fill="white"/>
<path d="M124.223 28.8007V21.6482H127.602V18.2528H124.223V13.6642L120.087 14.6606V18.2528H117.535V21.6482H120.087V29.3973C120.087 34.722 122.866 35.5153 128 35.1155V31.8915C125.221 32.0882 124.23 31.3901 124.23 28.8007H124.223Z" fill="white"/>
<path d="M112.562 15.5477C113.957 15.5477 115.088 14.411 115.088 13.0089C115.088 11.6067 113.957 10.47 112.562 10.47C111.166 10.47 110.035 11.6067 110.035 13.0089C110.035 14.411 111.166 15.5477 112.562 15.5477Z" fill="white"/>
<path d="M142.988 36V9.72H150.332C152.06 9.72 153.56 10.056 154.832 10.728C156.104 11.376 157.088 12.3 157.784 13.5C158.504 14.7 158.864 16.116 158.864 17.748V27.936C158.864 29.544 158.504 30.96 157.784 32.184C157.088 33.408 156.104 34.356 154.832 35.028C153.56 35.676 152.06 36 150.332 36H142.988ZM146.876 32.472H150.332C151.772 32.472 152.9 32.076 153.716 31.284C154.556 30.468 154.976 29.352 154.976 27.936V17.748C154.976 16.356 154.556 15.264 153.716 14.472C152.9 13.656 151.772 13.248 150.332 13.248H146.876V32.472ZM172.386 36.324C170.754 36.324 169.338 36.012 168.138 35.388C166.938 34.764 166.014 33.876 165.366 32.724C164.718 31.572 164.394 30.216 164.394 28.656V23.544C164.394 21.96 164.718 20.604 165.366 19.476C166.014 18.324 166.938 17.436 168.138 16.812C169.338 16.188 170.754 15.876 172.386 15.876C174.018 15.876 175.434 16.188 176.634 16.812C177.834 17.436 178.758 18.324 179.406 19.476C180.054 20.604 180.378 21.96 180.378 23.544V28.656C180.378 30.216 180.054 31.572 179.406 32.724C178.758 33.876 177.834 34.764 176.634 35.388C175.434 36.012 174.018 36.324 172.386 36.324ZM172.386 32.904C173.706 32.904 174.726 32.544 175.446 31.824C176.166 31.08 176.526 30.024 176.526 28.656V23.544C176.526 22.152 176.166 21.096 175.446 20.376C174.726 19.656 173.706 19.296 172.386 19.296C171.09 19.296 170.07 19.656 169.326 20.376C168.606 21.096 168.246 22.152 168.246 23.544V28.656C168.246 30.024 168.606 31.08 169.326 31.824C170.07 32.544 171.09 32.904 172.386 32.904ZM194.116 36.36C192.484 36.36 191.044 36.06 189.796 35.46C188.572 34.836 187.624 33.948 186.952 32.796C186.304 31.62 185.98 30.252 185.98 28.692V23.508C185.98 21.924 186.304 20.556 186.952 19.404C187.624 18.252 188.572 17.376 189.796 16.776C191.044 16.152 192.484 15.84 194.116 15.84C196.492 15.84 198.4 16.464 199.84 17.712C201.28 18.96 202.036 20.664 202.108 22.824H198.22C198.148 21.696 197.752 20.82 197.032 20.196C196.312 19.572 195.34 19.26 194.116 19.26C192.796 19.26 191.752 19.632 190.984 20.376C190.216 21.096 189.832 22.128 189.832 23.472V28.692C189.832 30.036 190.216 31.08 190.984 31.824C191.752 32.568 192.796 32.94 194.116 32.94C195.34 32.94 196.312 32.628 197.032 32.004C197.752 31.38 198.148 30.504 198.22 29.376H202.108C202.036 31.536 201.28 33.24 199.84 34.488C198.4 35.736 196.492 36.36 194.116 36.36ZM214.874 36.324C213.458 36.324 212.21 36.096 211.13 35.64C210.074 35.184 209.234 34.56 208.61 33.768C208.01 32.952 207.662 31.992 207.566 30.888H211.454C211.55 31.536 211.898 32.064 212.498 32.472C213.098 32.856 213.89 33.048 214.874 33.048H216.422C217.598 33.048 218.486 32.808 219.086 32.328C219.686 31.848 219.986 31.212 219.986 30.42C219.986 29.652 219.71 29.052 219.158 28.62C218.63 28.164 217.838 27.864 216.782 27.72L214.226 27.324C212.114 26.988 210.554 26.388 209.546 25.524C208.562 24.636 208.07 23.328 208.07 21.6C208.07 19.776 208.658 18.372 209.834 17.388C211.034 16.38 212.798 15.876 215.126 15.876H216.494C218.558 15.876 220.202 16.356 221.426 17.316C222.674 18.252 223.382 19.512 223.55 21.096H219.662C219.566 20.52 219.242 20.052 218.69 19.692C218.162 19.332 217.43 19.152 216.494 19.152H215.126C213.998 19.152 213.17 19.368 212.642 19.8C212.138 20.208 211.886 20.82 211.886 21.636C211.886 22.356 212.114 22.896 212.57 23.256C213.026 23.616 213.734 23.868 214.694 24.012L217.322 24.444C219.554 24.756 221.186 25.38 222.218 26.316C223.274 27.228 223.802 28.56 223.802 30.312C223.802 32.208 223.178 33.684 221.93 34.74C220.706 35.796 218.87 36.324 216.422 36.324H214.874Z" fill="white"/>
</svg>
