<svg width="636" height="142" viewBox="0 0 636 142" fill="none" xmlns="http://www.w3.org/2000/svg">
<g clip-path="url(#clip0_4033_86)">
<path d="M42.5801 53.18C51.67 53.18 60.3295 56.8004 63.9395 63.0403L55.9395 69.72C53.7494 65.5601 48.8194 63.37 44.4395 63.26C40.0595 63.0401 34.9102 64.4702 34.9102 69.51C34.9102 73.89 41.1497 74.99 48.0596 77.18C56.3896 79.92 65.7002 83.43 65.7002 94.93C65.7002 106.43 55.6196 111.25 43.3496 111.14C32.8298 111.14 23.9598 106.76 20.0098 100.29L28.2217 93.1761C30.3038 97.8826 36.112 100.73 41.8096 101.06C48.0495 101.28 52.2196 99.2001 52.2197 94.9202C52.2197 90.6402 46.2995 89.1096 39.7295 87.0296C31.3996 84.2896 21.7598 80.8895 21.7598 69.6096C21.76 58.9799 30.9602 53.29 42.5801 53.18ZM154.34 53.18C164.64 53.18 171.21 58.7699 174.83 66.4397V54.2796H188.53V109.82H174.83V97.5501C171.21 105.44 164.64 111.13 154.34 111.13C138.56 111.13 127.83 98.64 127.83 81.8802C127.83 65.1202 138.57 53.1801 154.34 53.18ZM251.15 53.18C270.43 53.18 281.061 66.7603 279.851 85.5003H236.141C237.021 93.83 243.37 99.5197 252.46 99.5198C258.16 99.6298 263.2 97.5497 266.48 94.1497L276.45 101.38C270.97 107.63 262.21 111.13 252.46 111.13C233.84 111.13 222.221 98.64 222.221 81.8802H222.23C222.23 65.1202 233.08 53.18 251.15 53.18ZM99.71 53.1702C109.68 53.2802 117.24 57.3305 122.5 64.2405L113.521 71.6897C110.561 67.7498 105.96 65.5502 100.48 65.5501C90.9505 65.4401 83.9404 71.9001 83.9404 82.0901C83.9405 92.2801 90.9505 98.8505 100.48 98.7405C105.96 98.7404 110.78 96.4395 113.63 92.2796L122.83 99.3997C117.46 106.52 109.79 111.12 99.71 111.12C82.1802 111.12 70.6808 98.6301 70.6807 81.8704C70.6807 65.1105 82.1801 53.0603 99.71 53.1702ZM392.63 54.2796H403.8V65.4505H392.63V89.0003C392.63 97.5501 395.92 99.8497 405.12 99.1897V109.82C388.14 111.13 378.94 108.51 378.94 90.9798V65.4505H370.5V54.2796H378.94V40.4505L392.63 37.1604V54.2796ZM212.22 109.93H198.53V30.72H212.22V109.93ZM303.641 74.3196L325.771 54.2698H341.55L314.931 79.2503L343.74 109.93H327.53L303.65 84.2903H303.641V109.93H289.95V30.72H303.641V74.3196ZM363.86 109.93H350.17V54.2698H363.86V109.93ZM158.08 65.5598C148.66 65.5598 141.65 71.91 141.65 82.0999C141.65 92.2899 148.66 98.7503 158.08 98.7503C167.5 98.7503 174.73 92.1799 174.73 82.0999C174.73 71.91 167.5 65.5598 158.08 65.5598ZM28.2217 93.1761C28.2209 93.1742 28.2206 93.1721 28.2197 93.1702H28.2295L28.2217 93.1761ZM251.8 64.68C242.81 64.6801 237.12 70.0505 236.13 78.3704L236.141 78.3802L267.8 78.1604C266.81 69.9404 260.79 64.68 251.8 64.68ZM356.96 31.0501C361.378 31.0501 364.96 34.6318 364.96 39.0501C364.96 43.4683 361.378 47.0501 356.96 47.0501C352.542 47.0501 348.96 43.4683 348.96 39.0501C348.96 34.6318 352.542 31.0501 356.96 31.0501Z" fill="#FDFDFE"/>
</g>
<rect x="425.12" y="20" width="190.04" height="101.86" rx="8" fill="#2E992A"/>
<g clip-path="url(#clip1_4033_86)">
<path d="M509.98 107.86H495.101L488.68 90.3096L460.53 90.2002L454.11 107.86H439.12L467.49 34H481.94L509.98 107.86ZM601.16 107.86H587.03V34.1104H601.16V107.86ZM545.92 34C563.9 34 575.04 41.9199 575.04 59.2598C575.04 76.5998 563.91 83.7695 545.92 83.7695H532.11V107.85H517.98V34H545.92ZM464.601 79.2803H484.62L474.771 52.0898L464.601 79.2803ZM532.11 72.5303H543.88C555.23 72.5303 560.79 68.8901 560.79 59.3604C560.79 49.8304 555.22 45.7695 543.88 45.7695H532.11V72.5303Z" fill="#FDFDFE"/>
</g>
<defs>
<clipPath id="clip0_4033_86">
<rect width="385.12" height="80.42" fill="white" transform="translate(20 30.72)"/>
</clipPath>
<clipPath id="clip1_4033_86">
<rect width="162.04" height="73.86" fill="white" transform="translate(439.12 34)"/>
</clipPath>
</defs>
</svg>
