<svg width="171" height="45" viewBox="0 0 171 45" fill="none" xmlns="http://www.w3.org/2000/svg">
<path d="M12.4838 24.4399C10.6449 23.8548 8.97875 23.565 8.97875 22.3948C8.97875 21.0518 10.3496 20.6729 11.5198 20.7286C12.69 20.7565 14.0051 21.3416 14.5847 22.4505L16.7189 20.6673C15.7549 19.0011 13.4479 18.0371 11.0238 18.0371C7.92555 18.065 5.47366 19.5863 5.47366 22.4171C5.47366 25.4262 8.04257 26.329 10.2604 27.0589C12.0157 27.6162 13.5872 27.9951 13.5872 29.1598C13.5872 30.3244 12.4783 30.8538 10.8121 30.7981C9.29081 30.7089 7.74723 29.9511 7.18998 28.6973L5 30.5975C6.0532 32.3194 8.41593 33.4896 11.2189 33.4896C14.4899 33.5175 17.1759 32.0853 17.1759 29.1653C17.1759 26.1005 14.6905 25.1643 12.4727 24.4343L12.4838 24.4399Z" fill="#F6F6F9"/>
<path d="M26.8841 30.1953C24.3431 30.2232 22.4763 28.4456 22.4763 25.7541C22.4763 23.0626 24.3431 21.3128 26.8841 21.3462C28.3441 21.3462 29.5701 21.9314 30.3614 22.9846L32.7575 21.0008C31.3533 19.1618 29.3416 18.0808 26.6835 18.0529C22.0082 18.0251 18.9434 21.2348 18.9434 25.7039C18.9434 30.1731 22.0082 33.4998 26.6835 33.4998C29.3695 33.4998 31.4146 32.2739 32.8467 30.3737L30.3948 28.4735C29.637 29.5824 28.3497 30.1953 26.8897 30.1953H26.8841Z" fill="#F6F6F9"/>
<path d="M47.1208 21.5799C46.1567 19.5348 44.4069 18.0469 41.6596 18.0469C37.4524 18.0469 34.5938 21.2288 34.5938 25.6979C34.5938 30.167 37.458 33.4938 41.6596 33.4938C44.4069 33.4938 46.1567 31.9725 47.1208 29.8717V33.1428H50.7706V18.3367H47.1208V21.5799ZM42.6516 30.1949C40.1384 30.1949 38.2716 28.4452 38.2716 25.7536C38.2716 23.0621 40.1384 21.3458 42.6516 21.3458C45.1648 21.3458 47.0928 23.0399 47.0928 25.7536C47.0928 28.4674 45.1648 30.1949 42.6516 30.1949Z" fill="#F6F6F9"/>
<path d="M57.4918 11.5H53.8418V33.1713H57.4918V11.5Z" fill="#F6F6F9"/>
<path d="M67.6303 18.0469C62.8101 18.0469 59.918 21.2288 59.918 25.6979C59.918 30.167 63.0163 33.4938 67.9814 33.4938C70.5781 33.4938 72.9186 32.5576 74.3786 30.897L71.7205 28.969C70.8456 29.8717 69.5026 30.429 67.9814 30.4011C65.5573 30.4011 63.8633 28.8798 63.6293 26.662H75.2813C75.6045 21.669 72.7681 18.0469 67.6303 18.0469ZM63.6293 24.7617C63.8912 22.5439 65.3846 21.1118 67.8086 21.1118C70.2326 21.1118 71.8097 22.516 72.0716 24.706L63.6293 24.7617Z" fill="#F6F6F9"/>
<path d="M92.364 18.3374H88.1568L82.2555 23.6814V11.5H78.6055V33.1713H82.2555V26.3395L88.6249 33.1713H92.9491L85.2647 24.9965L92.364 18.3374Z" fill="#F6F6F9"/>
<path d="M95.4297 33.1701H99.0797V18.3027H95.4297V33.1701Z" fill="#F6F6F9"/>
<path d="M107.556 27.593V21.3129H110.537V18.3316H107.556V14.3027L103.906 15.1776V18.3316H101.654V21.3129H103.906V28.1168C103.906 32.7922 106.357 33.4887 110.888 33.1377V30.3068C108.436 30.4796 107.561 29.8666 107.561 27.593H107.556Z" fill="#F6F6F9"/>
<path d="M97.2585 15.9584C98.4897 15.9584 99.4877 14.9604 99.4877 13.7292C99.4877 12.4981 98.4897 11.5 97.2585 11.5C96.0274 11.5 95.0293 12.4981 95.0293 13.7292C95.0293 14.9604 96.0274 15.9584 97.2585 15.9584Z" fill="#F6F6F9"/>
<mask id="mask0_212_31516" style="mask-type:luminance" maskUnits="userSpaceOnUse" x="118" y="9" width="53" height="27">
<path d="M118.889 9H170.889V36H118.889V9Z" fill="white"/>
</mask>
<g mask="url(#mask0_212_31516)">
<path d="M119.889 36V9H117.889V36H119.889Z" fill="#2E992A"/>
</g>
<path d="M135.302 28.0002H132.006V17.8184H135.407C136.405 17.8184 137.261 18.0222 137.977 18.4299C138.693 18.8342 139.242 19.4159 139.623 20.1749C140.007 20.9306 140.199 21.8371 140.199 22.8944C140.199 23.955 140.006 24.8664 139.618 25.6288C139.233 26.3911 138.677 26.9777 137.947 27.3887C137.218 27.7964 136.337 28.0002 135.302 28.0002ZM133.543 26.6579H135.218C135.994 26.6579 136.638 26.512 137.152 26.2204C137.666 25.9254 138.05 25.4995 138.305 24.9427C138.561 24.3825 138.688 23.6998 138.688 22.8944C138.688 22.0956 138.561 21.4178 138.305 20.861C138.053 20.3042 137.677 19.8816 137.177 19.5932C136.676 19.3049 136.055 19.1607 135.312 19.1607H133.543V26.6579ZM145.207 28.1543C144.491 28.1543 143.866 27.9903 143.333 27.6621C142.799 27.334 142.385 26.875 142.09 26.285C141.795 25.695 141.647 25.0056 141.647 24.2168C141.647 23.4247 141.795 22.732 142.09 22.1387C142.385 21.5454 142.799 21.0847 143.333 20.7566C143.866 20.4285 144.491 20.2644 145.207 20.2644C145.923 20.2644 146.548 20.4285 147.081 20.7566C147.615 21.0847 148.029 21.5454 148.324 22.1387C148.619 22.732 148.767 23.4247 148.767 24.2168C148.767 25.0056 148.619 25.695 148.324 26.285C148.029 26.875 147.615 27.334 147.081 27.6621C146.548 27.9903 145.923 28.1543 145.207 28.1543ZM145.212 26.9064C145.676 26.9064 146.061 26.7838 146.366 26.5386C146.67 26.2933 146.896 25.9668 147.042 25.5591C147.191 25.1515 147.265 24.7024 147.265 24.2118C147.265 23.7246 147.191 23.2772 147.042 22.8695C146.896 22.4585 146.67 22.1288 146.366 21.8802C146.061 21.6316 145.676 21.5073 145.212 21.5073C144.745 21.5073 144.357 21.6316 144.049 21.8802C143.744 22.1288 143.517 22.4585 143.368 22.8695C143.222 23.2772 143.149 23.7246 143.149 24.2118C143.149 24.7024 143.222 25.1515 143.368 25.5591C143.517 25.9668 143.744 26.2933 144.049 26.5386C144.357 26.7838 144.745 26.9064 145.212 26.9064ZM153.643 28.1543C152.904 28.1543 152.267 27.9869 151.734 27.6522C151.203 27.3141 150.796 26.8484 150.511 26.2552C150.226 25.6619 150.083 24.9824 150.083 24.2168C150.083 23.4413 150.229 22.7568 150.521 22.1636C150.812 21.567 151.223 21.1013 151.753 20.7665C152.284 20.4318 152.909 20.2644 153.628 20.2644C154.208 20.2644 154.725 20.3721 155.179 20.5876C155.633 20.7997 155.999 21.098 156.278 21.4824C156.559 21.8669 156.727 22.316 156.78 22.8297H155.333C155.253 22.4718 155.071 22.1636 154.786 21.905C154.504 21.6465 154.127 21.5172 153.653 21.5172C153.238 21.5172 152.875 21.6266 152.564 21.8454C152.256 22.0608 152.015 22.369 151.843 22.7701C151.671 23.1678 151.584 23.6385 151.584 24.182C151.584 24.7388 151.669 25.2194 151.838 25.6238C152.007 26.0281 152.246 26.3413 152.554 26.5634C152.865 26.7855 153.232 26.8965 153.653 26.8965C153.934 26.8965 154.19 26.8451 154.418 26.7424C154.65 26.6363 154.844 26.4855 155 26.29C155.159 26.0944 155.27 25.8591 155.333 25.584H156.78C156.727 26.0779 156.566 26.5187 156.297 26.9064C156.029 27.2942 155.669 27.5992 155.219 27.8212C154.771 28.0433 154.246 28.1543 153.643 28.1543ZM164.092 22.2282L162.744 22.4668C162.688 22.2945 162.599 22.1304 162.476 21.9746C162.357 21.8189 162.194 21.6913 161.989 21.5918C161.783 21.4924 161.526 21.4427 161.218 21.4427C160.797 21.4427 160.446 21.5371 160.164 21.7261C159.882 21.9117 159.742 22.152 159.742 22.4469C159.742 22.7021 159.836 22.9076 160.025 23.0634C160.214 23.2192 160.519 23.3468 160.94 23.4462L162.153 23.7246C162.855 23.887 163.379 24.1373 163.724 24.4753C164.069 24.8134 164.241 25.2526 164.241 25.7928C164.241 26.2502 164.108 26.6579 163.843 27.0158C163.581 27.3705 163.215 27.6489 162.744 27.8511C162.277 28.0532 161.735 28.1543 161.119 28.1543C160.264 28.1543 159.566 27.972 159.026 27.6074C158.485 27.2395 158.154 26.7175 158.031 26.0414L159.468 25.8226C159.558 26.1972 159.742 26.4806 160.02 26.6728C160.298 26.8617 160.661 26.9562 161.109 26.9562C161.596 26.9562 161.985 26.8551 162.277 26.6529C162.569 26.4474 162.715 26.1972 162.715 25.9022C162.715 25.6636 162.625 25.463 162.446 25.3006C162.27 25.1382 162 25.0156 161.636 24.9327L160.343 24.6493C159.631 24.4869 159.104 24.2284 158.762 23.8738C158.424 23.5191 158.255 23.07 158.255 22.5265C158.255 22.0757 158.381 21.6813 158.633 21.3432C158.885 21.0052 159.233 20.7417 159.677 20.5528C160.121 20.3605 160.63 20.2644 161.203 20.2644C162.028 20.2644 162.678 20.4434 163.152 20.8013C163.626 21.156 163.939 21.6316 164.092 22.2282Z" fill="#2E992A"/>
</svg>
