<svg width="150" height="150" viewBox="0 0 150 150" fill="none" xmlns="http://www.w3.org/2000/svg">
<path fill-rule="evenodd" clip-rule="evenodd" d="M111.818 111.162L79.9776 150L69.1016 143.721L100.942 104.883L111.818 111.162Z" fill="#1F1F1F"/>
<path fill-rule="evenodd" clip-rule="evenodd" d="M79.9757 150L48.1358 147.928L37.2598 141.648L69.0997 143.721L79.9757 150Z" fill="#1F1F1F"/>
<path fill-rule="evenodd" clip-rule="evenodd" d="M27.876 119.919V66.4414L17 60.1621V113.64L27.876 119.919Z" fill="#1F1F1F"/>
<path fill-rule="evenodd" clip-rule="evenodd" d="M132.079 6.27929V59.7569L121.203 53.4776V0L132.079 6.27929Z" fill="#1F1F1F"/>
<path fill-rule="evenodd" clip-rule="evenodd" d="M132.079 59.7568L121.203 53.4775L132.079 59.7568Z" fill="#1F1F1F"/>
<path fill-rule="evenodd" clip-rule="evenodd" d="M132.079 59.7568C131.698 67.984 129.659 76.9459 126.134 85.8907L115.258 79.6114C118.783 70.6667 120.822 61.7047 121.203 53.4775L132.079 59.7568Z" fill="#1F1F1F"/>
<path fill-rule="evenodd" clip-rule="evenodd" d="M126.134 85.8906C122.608 94.8353 117.699 103.501 111.817 111.162L100.941 104.883C106.823 97.2222 111.732 88.556 115.258 79.6113L126.134 85.8906Z" fill="#1F1F1F"/>
<path fill-rule="evenodd" clip-rule="evenodd" d="M48.1374 147.927C45.5497 147.545 43.15 146.75 40.9737 145.565L30.0977 139.286C32.274 140.471 34.6737 141.266 37.2614 141.648L48.1374 147.927Z" fill="#1F1F1F"/>
<path fill-rule="evenodd" clip-rule="evenodd" d="M40.9739 145.566C38.204 144.057 35.7957 141.917 33.8213 139.187L22.9453 132.908C24.9197 135.637 27.328 137.778 30.0979 139.286L40.9739 145.566Z" fill="#1F1F1F"/>
<path fill-rule="evenodd" clip-rule="evenodd" d="M33.8214 139.188C30.2958 134.314 28.257 127.706 27.876 119.919L17 113.64C17.3809 121.427 19.4198 128.035 22.9454 132.908L33.8214 139.188Z" fill="#1F1F1F"/>
<path fill-rule="evenodd" clip-rule="evenodd" d="M27.876 66.4417C47.4431 55.1446 65.505 37.2297 79.9777 16.3066L69.1017 10.0273C54.629 30.9504 36.5671 48.8653 17 60.1624L27.876 66.4417Z" fill="#1F1F1F"/>
<path fill-rule="evenodd" clip-rule="evenodd" d="M79.9776 16.3064C94.4504 20.5845 112.512 17.5764 132.079 6.27929L121.203 0C101.636 11.2971 83.5744 14.3052 69.1016 10.0271L79.9776 16.3064Z" fill="#1F1F1F"/>
<path d="M131.765 59.7422C131.385 67.9296 129.356 76.8576 125.841 85.7754C122.326 94.6927 117.431 103.333 111.567 110.971L79.8359 149.676L48.1689 147.614C42.3787 146.755 37.5491 143.806 34.0752 139.004C30.5944 134.192 28.5673 127.648 28.1885 119.903V66.6221C47.6866 55.325 65.6731 37.4856 80.1055 16.6689C94.5333 20.8515 112.428 17.8662 131.765 6.81934V59.7422Z" fill="white" stroke="black" stroke-width="0.627928"/>
<path d="M101.337 101.382L84.4332 97.5049V97.5717L67.4711 120.801L73.4339 94.6305L57.0508 89.7842L77.6599 77.3506L84.4332 50.9795L91.2064 69.5295L111.815 58.1656L95.3746 82.0299L101.337 101.382Z" fill="#3FBC46"/>
<path d="M101.337 101.382L84.4332 97.5049V97.5717L67.4711 120.801L73.4339 94.6305L57.0508 89.7842L77.6599 77.3506L84.4332 50.9795L91.2064 69.5295L111.815 58.1656L95.3746 82.0299L101.337 101.382Z" fill="#50C256"/>
</svg>
