<svg width="160" height="40" viewBox="0 0 160 40" fill="none" xmlns="http://www.w3.org/2000/svg">
<path d="M13.04 21.9399C11.2011 21.3548 9.5349 21.065 9.5349 19.8948C9.5349 18.5518 10.9057 18.1729 12.0759 18.2286C13.2462 18.2565 14.5613 18.8416 15.1408 19.9505L17.2751 18.1673C16.311 16.5011 14.004 15.5371 11.58 15.5371C8.4817 15.565 6.02981 17.0863 6.02981 19.9171C6.02981 22.9262 8.59872 23.829 10.8166 24.5589C12.5719 25.1162 14.1433 25.4951 14.1433 26.6598C14.1433 27.8244 13.0344 28.3538 11.3682 28.2981C9.84696 28.2089 8.30338 27.4511 7.74614 26.1973L5.55615 28.0975C6.60935 29.8194 8.97208 30.9896 11.775 30.9896C15.0461 31.0175 17.732 29.5853 17.732 26.6653C17.732 23.6005 15.2467 22.6643 13.0288 21.9343L13.04 21.9399Z" fill="#040405"/>
<path d="M27.4398 27.6953C24.8988 27.7232 23.032 25.9456 23.032 23.2541C23.032 20.5626 24.8988 18.8128 27.4398 18.8462C28.8998 18.8462 30.1257 19.4314 30.917 20.4846L33.3132 18.5008C31.9089 16.6618 29.8973 15.5808 27.2392 15.5529C22.5639 15.5251 19.499 18.7348 19.499 23.2039C19.499 27.6731 22.5639 30.9998 27.2392 30.9998C29.9251 30.9998 31.9702 29.7739 33.4023 27.8737L30.9505 25.9735C30.1926 27.0824 28.9054 27.6953 27.4454 27.6953H27.4398Z" fill="#040405"/>
<path d="M47.6783 19.0801C46.7143 17.035 44.9645 15.5471 42.2173 15.5471C38.01 15.5471 35.1514 18.729 35.1514 23.1981C35.1514 27.6672 38.0156 30.994 42.2173 30.994C44.9645 30.994 46.7143 29.4727 47.6783 27.3719V30.643H51.3283V15.8369H47.6783V19.0801ZM43.2092 27.6951C40.696 27.6951 38.8292 25.9454 38.8292 23.2538C38.8292 20.5623 40.696 18.846 43.2092 18.846C45.7224 18.846 47.6504 20.5401 47.6504 23.2538C47.6504 25.9676 45.7224 27.6951 43.2092 27.6951Z" fill="#040405"/>
<path d="M58.0474 9H54.3975V30.6713H58.0474V9Z" fill="#040405"/>
<path d="M68.1854 15.5471C63.3653 15.5471 60.4731 18.729 60.4731 23.1981C60.4731 27.6672 63.5714 30.994 68.5365 30.994C71.1333 30.994 73.4737 30.0578 74.9337 28.3972L72.2756 26.4692C71.4008 27.3719 70.0578 27.9292 68.5365 27.9013C66.1125 27.9013 64.4185 26.38 64.1844 24.1622H75.8365C76.1597 19.1692 73.3233 15.5471 68.1854 15.5471ZM64.1844 22.2619C64.4463 20.0441 65.9397 18.612 68.3638 18.612C70.7878 18.612 72.3648 20.0162 72.6267 22.2062L64.1844 22.2619Z" fill="#040405"/>
<path d="M92.921 15.8374H88.7138L82.8126 21.1814V9H79.1626V30.6713H82.8126V23.8395L89.1819 30.6713H93.5062L85.8217 22.4965L92.921 15.8374Z" fill="#040405"/>
<path d="M95.9858 30.6706H99.6358V15.8032H95.9858V30.6706Z" fill="#040405"/>
<path d="M108.112 25.0928V18.8127H111.093V15.8314H108.112V11.8025L104.462 12.6774V15.8314H102.21V18.8127H104.462V25.6166C104.462 30.292 106.914 30.9885 111.444 30.6375V27.8066C108.992 27.9794 108.117 27.3664 108.117 25.0928H108.112Z" fill="#040405"/>
<path d="M97.8147 13.4584C99.0458 13.4584 100.044 12.4604 100.044 11.2292C100.044 9.99805 99.0458 9 97.8147 9C96.5835 9 95.5854 9.99805 95.5854 11.2292C95.5854 12.4604 96.5835 13.4584 97.8147 13.4584Z" fill="#040405"/>
<path d="M123.444 10.25H150.444C152.515 10.25 154.194 11.9289 154.194 14V26C154.194 28.0711 152.515 29.75 150.444 29.75H123.444C121.373 29.75 119.694 28.0711 119.694 26V14C119.694 11.9289 121.373 10.25 123.444 10.25Z" fill="#EBF4F0"/>
<path d="M123.444 10.25H150.444C152.515 10.25 154.194 11.9289 154.194 14V26C154.194 28.0711 152.515 29.75 150.444 29.75H123.444C121.373 29.75 119.694 28.0711 119.694 26V14C119.694 11.9289 121.373 10.25 123.444 10.25Z" stroke="#2E992A" stroke-width="0.5"/>
<path d="M126.163 23V16.4545H128.56C129.024 16.4545 129.409 16.5312 129.714 16.6847C130.018 16.8359 130.246 17.0415 130.398 17.3015C130.549 17.5593 130.625 17.8501 130.625 18.174C130.625 18.4467 130.575 18.6768 130.474 18.8643C130.374 19.0497 130.24 19.1989 130.072 19.3118C129.905 19.4226 129.722 19.5036 129.522 19.5547V19.6186C129.739 19.6293 129.951 19.6996 130.158 19.8295C130.367 19.9574 130.539 20.1396 130.676 20.3761C130.812 20.6126 130.88 20.9002 130.88 21.239C130.88 21.5735 130.801 21.8739 130.644 22.1403C130.488 22.4045 130.247 22.6143 129.921 22.7699C129.595 22.9233 129.179 23 128.672 23H126.163ZM127.151 22.1531H128.576C129.049 22.1531 129.388 22.0614 129.592 21.8782C129.797 21.695 129.899 21.4659 129.899 21.1911C129.899 20.9844 129.847 20.7947 129.742 20.6222C129.638 20.4496 129.489 20.3121 129.295 20.2099C129.103 20.1076 128.875 20.0565 128.611 20.0565H127.151V22.1531ZM127.151 19.2862H128.474C128.695 19.2862 128.894 19.2436 129.071 19.1584C129.25 19.0732 129.392 18.9538 129.496 18.8004C129.603 18.6449 129.656 18.4616 129.656 18.2507C129.656 17.9801 129.561 17.7532 129.372 17.57C129.182 17.3867 128.891 17.2951 128.499 17.2951H127.151V19.2862ZM132.052 23V16.4545H136.155V17.3047H133.039V19.299H135.941V20.146H133.039V22.1499H136.194V23H132.052ZM137.152 17.3047V16.4545H142.217V17.3047H140.175V23H139.191V17.3047H137.152ZM143.116 23H142.068L144.423 16.4545H145.564L147.92 23H146.872L145.021 17.6435H144.97L143.116 23ZM143.292 20.4368H146.693V21.2678H143.292V20.4368Z" fill="#1E6245"/>
</svg>
