<svg width="214" height="45" viewBox="0 0 214 45" fill="none" xmlns="http://www.w3.org/2000/svg">
<path d="M12.4838 24.4399C10.6449 23.8548 8.97875 23.565 8.97875 22.3948C8.97875 21.0518 10.3496 20.6729 11.5198 20.7286C12.69 20.7565 14.0051 21.3416 14.5847 22.4505L16.7189 20.6673C15.7549 19.0011 13.4479 18.0371 11.0238 18.0371C7.92555 18.065 5.47366 19.5863 5.47366 22.4171C5.47366 25.4262 8.04257 26.329 10.2604 27.0589C12.0157 27.6162 13.5872 27.9951 13.5872 29.1598C13.5872 30.3244 12.4783 30.8538 10.8121 30.7981C9.29081 30.7089 7.74723 29.9511 7.18998 28.6973L5 30.5975C6.0532 32.3194 8.41593 33.4896 11.2189 33.4896C14.4899 33.5175 17.1759 32.0853 17.1759 29.1653C17.1759 26.1005 14.6905 25.1643 12.4727 24.4343L12.4838 24.4399Z" fill="#F6F6F9"/>
<path d="M26.8836 30.1953C24.3426 30.2232 22.4758 28.4456 22.4758 25.7541C22.4758 23.0626 24.3426 21.3128 26.8836 21.3462C28.3436 21.3462 29.5696 21.9314 30.3609 22.9846L32.757 21.0008C31.3528 19.1618 29.3411 18.0808 26.683 18.0529C22.0077 18.0251 18.9429 21.2348 18.9429 25.7039C18.9429 30.1731 22.0077 33.4998 26.683 33.4998C29.369 33.4998 31.4141 32.2739 32.8462 30.3737L30.3943 28.4735C29.6365 29.5824 28.3492 30.1953 26.8892 30.1953H26.8836Z" fill="#F6F6F9"/>
<path d="M47.1217 21.5801C46.1576 19.535 44.4079 18.0471 41.6606 18.0471C37.4534 18.0471 34.5947 21.229 34.5947 25.6981C34.5947 30.1672 37.459 33.494 41.6606 33.494C44.4079 33.494 46.1576 31.9727 47.1217 29.8719V33.143H50.7716V18.3369H47.1217V21.5801ZM42.6525 30.1951C40.1393 30.1951 38.2726 28.4454 38.2726 25.7538C38.2726 23.0623 40.1393 21.346 42.6525 21.346C45.1657 21.346 47.0938 23.0401 47.0938 25.7538C47.0938 28.4676 45.1657 30.1951 42.6525 30.1951Z" fill="#F6F6F9"/>
<path d="M57.4918 11.5H53.8418V33.1713H57.4918V11.5Z" fill="#F6F6F9"/>
<path d="M67.6293 18.0471C62.8091 18.0471 59.917 21.229 59.917 25.6981C59.917 30.1672 63.0153 33.494 67.9804 33.494C70.5771 33.494 72.9176 32.5578 74.3776 30.8972L71.7195 28.9692C70.8446 29.8719 69.5016 30.4292 67.9804 30.4013C65.5563 30.4013 63.8623 28.88 63.6283 26.6622H75.2803C75.6035 21.6692 72.7671 18.0471 67.6293 18.0471ZM63.6283 24.7619C63.8902 22.5441 65.3836 21.112 67.8076 21.112C70.2316 21.112 71.8087 22.5162 72.0706 24.7062L63.6283 24.7619Z" fill="#F6F6F9"/>
<path d="M92.3649 18.3374H88.1577L82.2564 23.6814V11.5H78.6064V33.1713H82.2564V26.3395L88.6258 33.1713H92.95L85.2656 24.9965L92.3649 18.3374Z" fill="#F6F6F9"/>
<path d="M95.4297 33.1706H99.0797V18.3032H95.4297V33.1706Z" fill="#F6F6F9"/>
<path d="M107.556 27.5928V21.3127H110.537V18.3314H107.556V14.3025L103.906 15.1774V18.3314H101.654V21.3127H103.906V28.1166C103.906 32.792 106.357 33.4885 110.888 33.1375V30.3066C108.436 30.4794 107.561 29.8664 107.561 27.5928H107.556Z" fill="#F6F6F9"/>
<path d="M97.2585 15.9584C98.4897 15.9584 99.4877 14.9604 99.4877 13.7292C99.4877 12.4981 98.4897 11.5 97.2585 11.5C96.0274 11.5 95.0293 12.4981 95.0293 13.7292C95.0293 14.9604 96.0274 15.9584 97.2585 15.9584Z" fill="#F6F6F9"/>
<mask id="path-10-inside-1_3030_40" fill="white">
<path d="M118.888 9H170.888V36H118.888V9Z"/>
</mask>
<path d="M119.888 36V9H117.888V36H119.888Z" fill="#2E992A" mask="url(#path-10-inside-1_3030_40)"/>
<path d="M135.302 28H132.006V17.8182H135.407C136.405 17.8182 137.261 18.022 137.977 18.4297C138.693 18.834 139.242 19.4157 139.623 20.1747C140.007 20.9304 140.199 21.8369 140.199 22.8942C140.199 23.9548 140.006 24.8662 139.618 25.6286C139.233 26.3909 138.677 26.9775 137.947 27.3885C137.218 27.7962 136.337 28 135.302 28ZM133.543 26.6577H135.218C135.994 26.6577 136.638 26.5118 137.152 26.2202C137.666 25.9252 138.05 25.4993 138.305 24.9425C138.561 24.3823 138.688 23.6996 138.688 22.8942C138.688 22.0954 138.561 21.4176 138.305 20.8608C138.053 20.304 137.677 19.8814 137.177 19.593C136.676 19.3047 136.055 19.1605 135.312 19.1605H133.543V26.6577ZM145.207 28.1541C144.491 28.1541 143.866 27.9901 143.333 27.6619C142.799 27.3338 142.385 26.8748 142.09 26.2848C141.795 25.6948 141.647 25.0054 141.647 24.2166C141.647 23.4245 141.795 22.7318 142.09 22.1385C142.385 21.5452 142.799 21.0845 143.333 20.7564C143.866 20.4283 144.491 20.2642 145.207 20.2642C145.923 20.2642 146.548 20.4283 147.081 20.7564C147.615 21.0845 148.029 21.5452 148.324 22.1385C148.619 22.7318 148.767 23.4245 148.767 24.2166C148.767 25.0054 148.619 25.6948 148.324 26.2848C148.029 26.8748 147.615 27.3338 147.081 27.6619C146.548 27.9901 145.923 28.1541 145.207 28.1541ZM145.212 26.9062C145.676 26.9062 146.061 26.7836 146.366 26.5384C146.67 26.2931 146.896 25.9666 147.042 25.5589C147.191 25.1513 147.265 24.7022 147.265 24.2116C147.265 23.7244 147.191 23.277 147.042 22.8693C146.896 22.4583 146.67 22.1286 146.366 21.88C146.061 21.6314 145.676 21.5071 145.212 21.5071C144.745 21.5071 144.357 21.6314 144.049 21.88C143.744 22.1286 143.517 22.4583 143.368 22.8693C143.222 23.277 143.149 23.7244 143.149 24.2116C143.149 24.7022 143.222 25.1513 143.368 25.5589C143.517 25.9666 143.744 26.2931 144.049 26.5384C144.357 26.7836 144.745 26.9062 145.212 26.9062ZM153.643 28.1541C152.904 28.1541 152.267 27.9867 151.734 27.652C151.203 27.3139 150.796 26.8482 150.511 26.255C150.226 25.6617 150.083 24.9822 150.083 24.2166C150.083 23.4411 150.229 22.7566 150.521 22.1634C150.812 21.5668 151.223 21.1011 151.753 20.7663C152.284 20.4316 152.909 20.2642 153.628 20.2642C154.208 20.2642 154.725 20.3719 155.179 20.5874C155.633 20.7995 155.999 21.0978 156.278 21.4822C156.559 21.8667 156.727 22.3158 156.78 22.8295H155.333C155.253 22.4716 155.071 22.1634 154.786 21.9048C154.504 21.6463 154.127 21.517 153.653 21.517C153.238 21.517 152.875 21.6264 152.564 21.8452C152.256 22.0606 152.015 22.3688 151.843 22.7699C151.671 23.1676 151.584 23.6383 151.584 24.1818C151.584 24.7386 151.669 25.2192 151.838 25.6236C152.007 26.0279 152.246 26.3411 152.554 26.5632C152.865 26.7853 153.232 26.8963 153.653 26.8963C153.934 26.8963 154.19 26.8449 154.418 26.7422C154.65 26.6361 154.844 26.4853 155 26.2898C155.159 26.0942 155.27 25.8589 155.333 25.5838H156.78C156.727 26.0777 156.566 26.5185 156.297 26.9062C156.029 27.294 155.669 27.599 155.219 27.821C154.771 28.0431 154.246 28.1541 153.643 28.1541ZM164.092 22.228L162.744 22.4666C162.688 22.2943 162.599 22.1302 162.476 21.9744C162.357 21.8187 162.194 21.6911 161.989 21.5916C161.783 21.4922 161.526 21.4425 161.218 21.4425C160.797 21.4425 160.446 21.5369 160.164 21.7259C159.882 21.9115 159.742 22.1518 159.742 22.4467C159.742 22.7019 159.836 22.9074 160.025 23.0632C160.214 23.219 160.519 23.3466 160.94 23.446L162.153 23.7244C162.855 23.8868 163.379 24.1371 163.724 24.4751C164.069 24.8132 164.241 25.2524 164.241 25.7926C164.241 26.25 164.108 26.6577 163.843 27.0156C163.581 27.3703 163.215 27.6487 162.744 27.8509C162.277 28.053 161.735 28.1541 161.119 28.1541C160.264 28.1541 159.566 27.9718 159.026 27.6072C158.485 27.2393 158.154 26.7173 158.031 26.0412L159.468 25.8224C159.558 26.197 159.742 26.4804 160.02 26.6726C160.298 26.8615 160.661 26.956 161.109 26.956C161.596 26.956 161.985 26.8549 162.277 26.6527C162.569 26.4472 162.715 26.197 162.715 25.902C162.715 25.6634 162.625 25.4628 162.446 25.3004C162.27 25.138 162 25.0154 161.636 24.9325L160.343 24.6491C159.631 24.4867 159.104 24.2282 158.762 23.8736C158.424 23.5189 158.255 23.0698 158.255 22.5263C158.255 22.0755 158.381 21.6811 158.633 21.343C158.885 21.005 159.233 20.7415 159.677 20.5526C160.121 20.3603 160.63 20.2642 161.203 20.2642C162.028 20.2642 162.678 20.4432 163.152 20.8011C163.626 21.1558 163.939 21.6314 164.092 22.228Z" fill="#2E992A"/>
<rect x="175.388" y="14" width="33" height="17" rx="3.5" fill="#12131A"/>
<rect x="175.388" y="14" width="33" height="17" rx="3.5" stroke="#313132"/>
<path d="M179.945 26.5V17.7727H182.996C183.604 17.7727 184.105 17.8778 184.5 18.0881C184.895 18.2955 185.189 18.5753 185.382 18.9276C185.575 19.277 185.672 19.6648 185.672 20.0909C185.672 20.4659 185.605 20.7756 185.472 21.0199C185.341 21.2642 185.168 21.4574 184.952 21.5994C184.739 21.7415 184.507 21.8466 184.257 21.9148V22C184.524 22.017 184.793 22.1108 185.062 22.2812C185.332 22.4517 185.558 22.696 185.74 23.0142C185.922 23.3324 186.013 23.7216 186.013 24.1818C186.013 24.6193 185.913 25.0128 185.714 25.3622C185.516 25.7116 185.202 25.9886 184.773 26.1932C184.344 26.3977 183.785 26.5 183.098 26.5H179.945ZM181.001 25.5625H183.098C183.788 25.5625 184.278 25.429 184.568 25.1619C184.861 24.892 185.007 24.5653 185.007 24.1818C185.007 23.8864 184.932 23.6136 184.781 23.3636C184.631 23.1108 184.416 22.9091 184.138 22.7585C183.859 22.6051 183.53 22.5284 183.149 22.5284H181.001V25.5625ZM181.001 21.608H182.962C183.28 21.608 183.567 21.5455 183.822 21.4205C184.081 21.2955 184.285 21.1193 184.436 20.892C184.589 20.6648 184.666 20.3977 184.666 20.0909C184.666 19.7074 184.533 19.3821 184.266 19.1151C183.998 18.8452 183.575 18.7102 182.996 18.7102H181.001V21.608ZM190.357 26.6364C189.726 26.6364 189.182 26.4972 188.725 26.2188C188.271 25.9375 187.92 25.5455 187.672 25.0426C187.428 24.5369 187.306 23.9489 187.306 23.2784C187.306 22.608 187.428 22.017 187.672 21.5057C187.92 20.9915 188.263 20.5909 188.704 20.304C189.147 20.0142 189.664 19.8693 190.255 19.8693C190.596 19.8693 190.932 19.9261 191.265 20.0398C191.597 20.1534 191.9 20.3381 192.172 20.5938C192.445 20.8466 192.663 21.1818 192.824 21.5994C192.986 22.017 193.067 22.5312 193.067 23.142V23.5682H188.022V22.6989H192.045C192.045 22.3295 191.971 22 191.823 21.7102C191.678 21.4205 191.471 21.1918 191.201 21.0241C190.934 20.8565 190.619 20.7727 190.255 20.7727C189.854 20.7727 189.508 20.8722 189.215 21.071C188.925 21.267 188.702 21.5227 188.546 21.8381C188.39 22.1534 188.312 22.4915 188.312 22.8523V23.4318C188.312 23.9261 188.397 24.3452 188.567 24.6889C188.741 25.0298 188.981 25.2898 189.288 25.4688C189.594 25.6449 189.951 25.733 190.357 25.733C190.621 25.733 190.86 25.696 191.073 25.6222C191.289 25.5455 191.475 25.4318 191.631 25.2812C191.788 25.1278 191.908 24.9375 191.994 24.7102L192.965 24.983C192.863 25.3125 192.691 25.6023 192.449 25.8523C192.208 26.0994 191.91 26.2926 191.555 26.4318C191.199 26.5682 190.8 26.6364 190.357 26.6364ZM197.444 19.9545V20.8068H194.052V19.9545H197.444ZM195.04 18.3864H196.046V24.625C196.046 24.9091 196.087 25.1222 196.17 25.2642C196.255 25.4034 196.363 25.4972 196.494 25.5455C196.627 25.5909 196.768 25.6136 196.915 25.6136C197.026 25.6136 197.117 25.608 197.188 25.5966C197.259 25.5824 197.316 25.571 197.359 25.5625L197.563 26.4659C197.495 26.4915 197.4 26.517 197.278 26.5426C197.155 26.571 197.001 26.5852 196.813 26.5852C196.529 26.5852 196.251 26.5241 195.978 26.402C195.708 26.2798 195.484 26.0938 195.305 25.8438C195.128 25.5938 195.04 25.2784 195.04 24.8977V18.3864ZM200.883 26.6534C200.468 26.6534 200.092 26.5753 199.753 26.419C199.415 26.2599 199.147 26.0312 198.948 25.733C198.749 25.4318 198.65 25.0682 198.65 24.642C198.65 24.267 198.724 23.9631 198.871 23.7301C199.019 23.4943 199.217 23.3097 199.464 23.1761C199.711 23.0426 199.984 22.9432 200.282 22.8778C200.583 22.8097 200.886 22.7557 201.19 22.7159C201.587 22.6648 201.91 22.6264 202.157 22.6009C202.407 22.5724 202.589 22.5256 202.702 22.4602C202.819 22.3949 202.877 22.2812 202.877 22.1193V22.0852C202.877 21.6648 202.762 21.3381 202.532 21.1051C202.305 20.8722 201.959 20.7557 201.496 20.7557C201.016 20.7557 200.64 20.8608 200.367 21.071C200.094 21.2812 199.903 21.5057 199.792 21.7443L198.837 21.4034C199.008 21.0057 199.235 20.696 199.519 20.4744C199.806 20.25 200.119 20.0937 200.457 20.0057C200.797 19.9148 201.133 19.8693 201.462 19.8693C201.672 19.8693 201.914 19.8949 202.187 19.946C202.462 19.9943 202.728 20.0952 202.984 20.2486C203.242 20.402 203.457 20.6335 203.627 20.9432C203.797 21.2528 203.883 21.6676 203.883 22.1875V26.5H202.877V25.6136H202.826C202.758 25.7557 202.644 25.9077 202.485 26.0696C202.326 26.2315 202.114 26.3693 201.85 26.483C201.586 26.5966 201.263 26.6534 200.883 26.6534ZM201.036 25.75C201.434 25.75 201.769 25.6719 202.042 25.5156C202.317 25.3594 202.525 25.1577 202.664 24.9105C202.806 24.6634 202.877 24.4034 202.877 24.1307V23.2102C202.834 23.2614 202.741 23.3082 202.596 23.3509C202.454 23.3906 202.289 23.4261 202.101 23.4574C201.917 23.4858 201.736 23.5114 201.56 23.5341C201.387 23.554 201.246 23.571 201.138 23.5852C200.877 23.6193 200.633 23.6747 200.405 23.7514C200.181 23.8253 199.999 23.9375 199.86 24.0881C199.724 24.2358 199.655 24.4375 199.655 24.6932C199.655 25.0426 199.785 25.3068 200.043 25.4858C200.305 25.6619 200.636 25.75 201.036 25.75Z" fill="#FDFDFE"/>
</svg>
