<svg width="215" height="45" viewBox="0 0 215 45" fill="none" xmlns="http://www.w3.org/2000/svg">
<path d="M12.4838 24.4399C10.6449 23.8548 8.97875 23.565 8.97875 22.3948C8.97875 21.0518 10.3496 20.6729 11.5198 20.7286C12.69 20.7565 14.0051 21.3416 14.5847 22.4505L16.7189 20.6673C15.7549 19.0011 13.4479 18.0371 11.0238 18.0371C7.92555 18.065 5.47366 19.5863 5.47366 22.4171C5.47366 25.4262 8.04257 26.329 10.2604 27.0589C12.0157 27.6162 13.5872 27.9951 13.5872 29.1598C13.5872 30.3244 12.4783 30.8538 10.8121 30.7981C9.29081 30.7089 7.74723 29.9511 7.18998 28.6973L5 30.5975C6.0532 32.3194 8.41593 33.4896 11.2189 33.4896C14.4899 33.5175 17.1759 32.0853 17.1759 29.1653C17.1759 26.1005 14.6905 25.1643 12.4727 24.4343L12.4838 24.4399Z" fill="#F6F6F9"/>
<path d="M26.8836 30.1953C24.3426 30.2232 22.4758 28.4456 22.4758 25.7541C22.4758 23.0626 24.3426 21.3128 26.8836 21.3462C28.3436 21.3462 29.5696 21.9314 30.3609 22.9846L32.757 21.0008C31.3528 19.1618 29.3411 18.0808 26.683 18.0529C22.0077 18.0251 18.9429 21.2348 18.9429 25.7039C18.9429 30.1731 22.0077 33.4998 26.683 33.4998C29.369 33.4998 31.4141 32.2739 32.8462 30.3737L30.3943 28.4735C29.6365 29.5824 28.3492 30.1953 26.8892 30.1953H26.8836Z" fill="#F6F6F9"/>
<path d="M47.1217 21.5801C46.1576 19.535 44.4079 18.0471 41.6606 18.0471C37.4534 18.0471 34.5947 21.229 34.5947 25.6981C34.5947 30.1672 37.459 33.494 41.6606 33.494C44.4079 33.494 46.1576 31.9727 47.1217 29.8719V33.143H50.7716V18.3369H47.1217V21.5801ZM42.6525 30.1951C40.1393 30.1951 38.2726 28.4454 38.2726 25.7538C38.2726 23.0623 40.1393 21.346 42.6525 21.346C45.1657 21.346 47.0938 23.0401 47.0938 25.7538C47.0938 28.4676 45.1657 30.1951 42.6525 30.1951Z" fill="#F6F6F9"/>
<path d="M57.4918 11.5H53.8418V33.1713H57.4918V11.5Z" fill="#F6F6F9"/>
<path d="M67.6293 18.0471C62.8091 18.0471 59.917 21.229 59.917 25.6981C59.917 30.1672 63.0153 33.494 67.9804 33.494C70.5771 33.494 72.9176 32.5578 74.3776 30.8972L71.7195 28.9692C70.8446 29.8719 69.5016 30.4292 67.9804 30.4013C65.5563 30.4013 63.8623 28.88 63.6283 26.6622H75.2803C75.6035 21.6692 72.7671 18.0471 67.6293 18.0471ZM63.6283 24.7619C63.8902 22.5441 65.3836 21.112 67.8076 21.112C70.2316 21.112 71.8087 22.5162 72.0706 24.7062L63.6283 24.7619Z" fill="#F6F6F9"/>
<path d="M92.3649 18.3374H88.1577L82.2564 23.6814V11.5H78.6064V33.1713H82.2564V26.3395L88.6258 33.1713H92.95L85.2656 24.9965L92.3649 18.3374Z" fill="#F6F6F9"/>
<path d="M95.4297 33.1706H99.0797V18.3032H95.4297V33.1706Z" fill="#F6F6F9"/>
<path d="M107.556 27.5928V21.3127H110.537V18.3314H107.556V14.3025L103.906 15.1774V18.3314H101.654V21.3127H103.906V28.1166C103.906 32.792 106.357 33.4885 110.888 33.1375V30.3066C108.436 30.4794 107.561 29.8664 107.561 27.5928H107.556Z" fill="#F6F6F9"/>
<path d="M97.2585 15.9584C98.4897 15.9584 99.4877 14.9604 99.4877 13.7292C99.4877 12.4981 98.4897 11.5 97.2585 11.5C96.0274 11.5 95.0293 12.4981 95.0293 13.7292C95.0293 14.9604 96.0274 15.9584 97.2585 15.9584Z" fill="#F6F6F9"/>
<mask id="path-10-inside-1_3030_40" fill="white">
<path d="M118.888 9H170.888V36H118.888V9Z"/>
</mask>
<path d="M119.888 36V9H117.888V36H119.888Z" fill="#4856E8" mask="url(#path-10-inside-1_3030_40)"/>
<path d="M135.302 28H132.006V17.8182H135.407C136.405 17.8182 137.261 18.022 137.977 18.4297C138.693 18.834 139.242 19.4157 139.623 20.1747C140.007 20.9304 140.199 21.8369 140.199 22.8942C140.199 23.9548 140.006 24.8662 139.618 25.6286C139.233 26.3909 138.677 26.9775 137.947 27.3885C137.218 27.7962 136.337 28 135.302 28ZM133.543 26.6577H135.218C135.994 26.6577 136.638 26.5118 137.152 26.2202C137.666 25.9252 138.05 25.4993 138.305 24.9425C138.561 24.3823 138.688 23.6996 138.688 22.8942C138.688 22.0954 138.561 21.4176 138.305 20.8608C138.053 20.304 137.677 19.8814 137.177 19.593C136.676 19.3047 136.055 19.1605 135.312 19.1605H133.543V26.6577ZM145.207 28.1541C144.491 28.1541 143.866 27.9901 143.333 27.6619C142.799 27.3338 142.385 26.8748 142.09 26.2848C141.795 25.6948 141.647 25.0054 141.647 24.2166C141.647 23.4245 141.795 22.7318 142.09 22.1385C142.385 21.5452 142.799 21.0845 143.333 20.7564C143.866 20.4283 144.491 20.2642 145.207 20.2642C145.923 20.2642 146.548 20.4283 147.081 20.7564C147.615 21.0845 148.029 21.5452 148.324 22.1385C148.619 22.7318 148.767 23.4245 148.767 24.2166C148.767 25.0054 148.619 25.6948 148.324 26.2848C148.029 26.8748 147.615 27.3338 147.081 27.6619C146.548 27.9901 145.923 28.1541 145.207 28.1541ZM145.212 26.9062C145.676 26.9062 146.061 26.7836 146.366 26.5384C146.67 26.2931 146.896 25.9666 147.042 25.5589C147.191 25.1513 147.265 24.7022 147.265 24.2116C147.265 23.7244 147.191 23.277 147.042 22.8693C146.896 22.4583 146.67 22.1286 146.366 21.88C146.061 21.6314 145.676 21.5071 145.212 21.5071C144.745 21.5071 144.357 21.6314 144.049 21.88C143.744 22.1286 143.517 22.4583 143.368 22.8693C143.222 23.277 143.149 23.7244 143.149 24.2116C143.149 24.7022 143.222 25.1513 143.368 25.5589C143.517 25.9666 143.744 26.2931 144.049 26.5384C144.357 26.7836 144.745 26.9062 145.212 26.9062ZM153.643 28.1541C152.904 28.1541 152.267 27.9867 151.734 27.652C151.203 27.3139 150.796 26.8482 150.511 26.255C150.226 25.6617 150.083 24.9822 150.083 24.2166C150.083 23.4411 150.229 22.7566 150.521 22.1634C150.812 21.5668 151.223 21.1011 151.753 20.7663C152.284 20.4316 152.909 20.2642 153.628 20.2642C154.208 20.2642 154.725 20.3719 155.179 20.5874C155.633 20.7995 155.999 21.0978 156.278 21.4822C156.559 21.8667 156.727 22.3158 156.78 22.8295H155.333C155.253 22.4716 155.071 22.1634 154.786 21.9048C154.504 21.6463 154.127 21.517 153.653 21.517C153.238 21.517 152.875 21.6264 152.564 21.8452C152.256 22.0606 152.015 22.3688 151.843 22.7699C151.671 23.1676 151.584 23.6383 151.584 24.1818C151.584 24.7386 151.669 25.2192 151.838 25.6236C152.007 26.0279 152.246 26.3411 152.554 26.5632C152.865 26.7853 153.232 26.8963 153.653 26.8963C153.934 26.8963 154.19 26.8449 154.418 26.7422C154.65 26.6361 154.844 26.4853 155 26.2898C155.159 26.0942 155.27 25.8589 155.333 25.5838H156.78C156.727 26.0777 156.566 26.5185 156.297 26.9062C156.029 27.294 155.669 27.599 155.219 27.821C154.771 28.0431 154.246 28.1541 153.643 28.1541ZM164.092 22.228L162.744 22.4666C162.688 22.2943 162.599 22.1302 162.476 21.9744C162.357 21.8187 162.194 21.6911 161.989 21.5916C161.783 21.4922 161.526 21.4425 161.218 21.4425C160.797 21.4425 160.446 21.5369 160.164 21.7259C159.882 21.9115 159.742 22.1518 159.742 22.4467C159.742 22.7019 159.836 22.9074 160.025 23.0632C160.214 23.219 160.519 23.3466 160.94 23.446L162.153 23.7244C162.855 23.8868 163.379 24.1371 163.724 24.4751C164.069 24.8132 164.241 25.2524 164.241 25.7926C164.241 26.25 164.108 26.6577 163.843 27.0156C163.581 27.3703 163.215 27.6487 162.744 27.8509C162.277 28.053 161.735 28.1541 161.119 28.1541C160.264 28.1541 159.566 27.9718 159.026 27.6072C158.485 27.2393 158.154 26.7173 158.031 26.0412L159.468 25.8224C159.558 26.197 159.742 26.4804 160.02 26.6726C160.298 26.8615 160.661 26.956 161.109 26.956C161.596 26.956 161.985 26.8549 162.277 26.6527C162.569 26.4472 162.715 26.197 162.715 25.902C162.715 25.6634 162.625 25.4628 162.446 25.3004C162.27 25.138 162 25.0154 161.636 24.9325L160.343 24.6491C159.631 24.4867 159.104 24.2282 158.762 23.8736C158.424 23.5189 158.255 23.0698 158.255 22.5263C158.255 22.0755 158.381 21.6811 158.633 21.343C158.885 21.005 159.233 20.7415 159.677 20.5526C160.121 20.3603 160.63 20.2642 161.203 20.2642C162.028 20.2642 162.678 20.4432 163.152 20.8011C163.626 21.1558 163.939 21.6314 164.092 22.228Z" fill="#727EFF"/>
<rect x="175.388" y="14" width="34" height="17" rx="3.5" fill="#12131A"/>
<rect x="175.388" y="14" width="34" height="17" rx="3.5" stroke="#313132"/>
<path d="M179.847 26.5V17.7727H183.043C183.662 17.7727 184.175 17.875 184.581 18.0795C184.987 18.2812 185.291 18.5554 185.493 18.902C185.695 19.2457 185.795 19.6335 185.795 20.0653C185.795 20.429 185.729 20.7358 185.595 20.9858C185.462 21.233 185.283 21.4318 185.058 21.5824C184.837 21.7301 184.592 21.8381 184.325 21.9062V21.9915C184.615 22.0057 184.898 22.0994 185.173 22.2727C185.452 22.4432 185.682 22.6861 185.864 23.0014C186.045 23.3168 186.136 23.7003 186.136 24.152C186.136 24.598 186.031 24.9986 185.821 25.3537C185.614 25.706 185.293 25.9858 184.858 26.1932C184.423 26.3977 183.868 26.5 183.192 26.5H179.847ZM181.163 25.3707H183.064C183.695 25.3707 184.146 25.2486 184.419 25.0043C184.692 24.7599 184.828 24.4545 184.828 24.0881C184.828 23.8125 184.758 23.5597 184.619 23.3295C184.48 23.0994 184.281 22.9162 184.023 22.7798C183.767 22.6435 183.463 22.5753 183.111 22.5753H181.163V25.3707ZM181.163 21.5483H182.927C183.223 21.5483 183.489 21.4915 183.724 21.3778C183.963 21.2642 184.152 21.1051 184.291 20.9006C184.433 20.6932 184.504 20.4489 184.504 20.1676C184.504 19.8068 184.378 19.5043 184.125 19.2599C183.872 19.0156 183.484 18.8935 182.962 18.8935H181.163V21.5483ZM190.417 26.6321C189.772 26.6321 189.217 26.4943 188.751 26.2188C188.288 25.9403 187.93 25.5497 187.677 25.0469C187.427 24.5412 187.302 23.9489 187.302 23.2699C187.302 22.5994 187.427 22.0085 187.677 21.4972C187.93 20.9858 188.282 20.5866 188.734 20.2997C189.188 20.0128 189.719 19.8693 190.327 19.8693C190.697 19.8693 191.055 19.9304 191.401 20.0526C191.748 20.1747 192.059 20.3665 192.334 20.6278C192.61 20.8892 192.827 21.2287 192.986 21.6463C193.146 22.0611 193.225 22.5653 193.225 23.1591V23.6108H188.022V22.6562H191.976C191.976 22.321 191.908 22.0241 191.772 21.7656C191.636 21.5043 191.444 21.2983 191.197 21.1477C190.952 20.9972 190.665 20.9219 190.336 20.9219C189.978 20.9219 189.665 21.0099 189.398 21.1861C189.134 21.3594 188.93 21.5866 188.785 21.8679C188.643 22.1463 188.572 22.4489 188.572 22.7756V23.5213C188.572 23.9588 188.648 24.331 188.802 24.6378C188.958 24.9446 189.175 25.179 189.454 25.3409C189.732 25.5 190.057 25.5795 190.43 25.5795C190.671 25.5795 190.891 25.5455 191.09 25.4773C191.289 25.4062 191.461 25.3011 191.606 25.1619C191.751 25.0227 191.861 24.8509 191.938 24.6463L193.144 24.8636C193.047 25.2187 192.874 25.5298 192.624 25.7969C192.377 26.0611 192.066 26.267 191.691 26.4148C191.319 26.5597 190.894 26.6321 190.417 26.6321ZM197.694 19.9545V20.9773H194.119V19.9545H197.694ZM195.078 18.3864H196.352V24.5781C196.352 24.8253 196.389 25.0114 196.463 25.1364C196.536 25.2585 196.632 25.3423 196.748 25.3878C196.867 25.4304 196.997 25.4517 197.136 25.4517C197.238 25.4517 197.328 25.4446 197.404 25.4304C197.481 25.4162 197.541 25.4048 197.583 25.3963L197.813 26.4489C197.74 26.4773 197.634 26.5057 197.498 26.5341C197.362 26.5653 197.191 26.5824 196.987 26.5852C196.652 26.5909 196.339 26.5312 196.049 26.4062C195.759 26.2812 195.525 26.0881 195.346 25.8267C195.167 25.5653 195.078 25.2372 195.078 24.8423V18.3864ZM201.008 26.6449C200.594 26.6449 200.219 26.5682 199.883 26.4148C199.548 26.2585 199.283 26.0327 199.087 25.7372C198.893 25.4418 198.797 25.0795 198.797 24.6506C198.797 24.2812 198.868 23.9773 199.01 23.7386C199.152 23.5 199.344 23.3111 199.585 23.1719C199.827 23.0327 200.097 22.9276 200.395 22.8565C200.693 22.7855 200.997 22.7315 201.307 22.6946C201.699 22.6491 202.017 22.6122 202.261 22.5838C202.506 22.5526 202.683 22.5028 202.794 22.4347C202.905 22.3665 202.96 22.2557 202.96 22.1023V22.0724C202.96 21.7003 202.855 21.4119 202.645 21.2074C202.437 21.0028 202.128 20.9006 201.716 20.9006C201.287 20.9006 200.949 20.9957 200.702 21.1861C200.457 21.3736 200.288 21.5824 200.195 21.8125L198.997 21.5398C199.139 21.142 199.347 20.821 199.619 20.5767C199.895 20.3295 200.212 20.1506 200.57 20.0398C200.927 19.9261 201.304 19.8693 201.699 19.8693C201.96 19.8693 202.237 19.9006 202.53 19.9631C202.825 20.0227 203.101 20.1335 203.356 20.2955C203.615 20.4574 203.827 20.6889 203.991 20.9901C204.156 21.2884 204.239 21.6761 204.239 22.1534V26.5H202.994V25.6051H202.943C202.861 25.7699 202.737 25.9318 202.572 26.0909C202.408 26.25 202.196 26.3821 201.937 26.4872C201.679 26.5923 201.369 26.6449 201.008 26.6449ZM201.285 25.6222C201.638 25.6222 201.939 25.5526 202.189 25.4134C202.442 25.2741 202.633 25.0923 202.764 24.8679C202.898 24.6406 202.964 24.3977 202.964 24.1392V23.2955C202.919 23.3409 202.831 23.3835 202.7 23.4233C202.572 23.4602 202.426 23.4929 202.261 23.5213C202.097 23.5469 201.936 23.571 201.78 23.5938C201.623 23.6136 201.493 23.6307 201.388 23.6449C201.141 23.6761 200.915 23.7287 200.71 23.8026C200.508 23.8764 200.347 23.983 200.224 24.1222C200.105 24.2585 200.045 24.4403 200.045 24.6676C200.045 24.983 200.162 25.2216 200.395 25.3835C200.628 25.5426 200.925 25.6222 201.285 25.6222Z" fill="#FDFDFE"/>
</svg>
